<svg xmlns="http://www.w3.org/2000/svg" xmlns:xlink="http://www.w3.org/1999/xlink" width="816" height="1056" viewBox="0 0 612 792"><defs><path id="a" d="M8.578-4.094c0-1.047-.297-1.89-.844-2.422-.64-.64-1.5-.906-2.984-.906-.875 0-1.734.031-2.594.031-.594 0-1.187-.015-1.781-.03v.39l.406.047c.5.03.532.109.532 1.062v4.89c0 .36-.063.532-.22.61l-.359.203v.25C1.313.016 1.86 0 2.438 0 3 0 3.562.031 4.14.031c1.297 0 2.484-.453 3.297-1.265.75-.735 1.14-1.703 1.14-2.86m-1.64.297c0 1.11-.282 1.938-.797 2.453-.547.532-1.313.782-2.547.782a4 4 0 0 1-.75-.063v-6.219c.265-.031.437-.031.687-.031 1.281 0 2.157.25 2.688.781.484.485.718 1.219.718 2.297m0 0"/><path id="b" d="M5.219.031v-.406L4.89-.406c-.25-.016-.313-.156-.313-.656v-2.532c0-.969-.64-1.547-1.75-1.547-.469 0-.89.125-1.297.375l-.578.344v.75l.328.078.235-.547c.03-.062.343-.14.64-.14.719 0 1.078.39 1.11 1.281l-.97.203C.923-2.516.439-2.094.439-1.172c0 .89.453 1.36 1.28 1.36.25 0 .423-.047.532-.141l1.016-.781-.063.687.063.078C3.594.016 3.922 0 4.25 0c.313 0 .64.016.969.031M3.266-1.25c-.22.281-.61.484-.938.484-.36 0-.562-.265-.562-.687 0-.531.234-.75 1-.953l.5-.14Zm0 0"/><path id="c" d="M3.531-.656 3.453-.86c-.234.109-.328.14-.515.14-.5 0-.672-.172-.672-.703v-2.61h1.156l.094-.702c-.422.046-.828.062-1.25.062v-.625c0-.578.03-.937.14-1.484l-.156-.11c-.437.204-.781.344-1.328.547.031.578.031.766.031 1v.657l-.719.468v.235l.704-.047v2.828c0 .969.406 1.39 1.359 1.39.328 0 .61-.078.703-.203Zm0 0"/><path id="d" d="M10.563.031v-.437l-.407-.031C9.641-.484 9.625-.5 9.625-1.47v-4.453c0-.953.031-1.031.531-1.062l.406-.047v-.39c-.437.015-.843.03-1.265.03s-.844-.015-1.266-.03L7.5-6.188l-2 4.109c-.844-1.766-1.703-3.547-2.531-5.344-.438.016-.875.031-1.313.031S.781-7.406.344-7.42v.39l.406.047c.5.03.531.109.531 1.062v4.453c0 .953-.031 1.016-.531 1.063l-.406.031v.406C.766.016 1.188 0 1.609 0c.407 0 .829.016 1.235.031v-.406l-.406-.031C1.953-.453 1.922-.5 1.922-1.47v-4.547l2.5 5.22c.078.171.203.421.406.905h.36c.218-.5.25-.609.656-1.437l2.25-4.688v4.547c0 .969-.016.985-.531 1.032l-.391.03v.438C7.734.016 8.282 0 8.859 0c.563 0 1.125.016 1.704.031m0 0"/><path id="e" d="M6.406.031v-.406l-.36-.016c-.343-.03-.39-.109-.39-.703v-2.031c0-.828-.11-1.25-.39-1.547C4.984-4.969 4.53-5.14 4-5.14c-.328 0-.594.063-.766.22l-.875.671v-.828l-.062-.063c-1.125.375-1.438.438-2.031.47v.39l.484.031c.25.031.281.125.281.766v2.39c0 .594-.047.672-.39.703l-.375.016v.406C.734.016 1.203 0 1.672 0c.484 0 .984.016 1.469.031v-.406l-.375-.016c-.344-.03-.407-.109-.407-.703v-2.36c0-.39.454-.75.938-.75.719 0 1.015.391 1.015 1.266v2.97C4.642.015 4.97 0 5.298 0c.375 0 .734.016 1.11.031m0 0"/><path id="f" d="M5.828.453c0-.906-.5-1.344-1.61-1.344h-.265L2.36-.844h-.03c-.313 0-.47-.125-.47-.328 0-.172.094-.297.313-.437.187.015.297.03.437.03.75 0 1.454-.25 1.891-.702.344-.344.484-.719.484-1.266 0-.172-.015-.297-.062-.515l.844.046.062-.703a8 8 0 0 1-.906.063c-.078 0-.203 0-.39-.016C4.093-5 3.577-5.14 2.874-5.14c-1.39 0-2.36.813-2.36 1.954 0 .406.141.765.407 1.046.203.22.36.313.75.454l-.781.593c-.11.063-.188.297-.188.516 0 .39.203.594.75.734l-.89.516c-.157.11-.282.39-.282.687 0 .938.922 1.547 2.36 1.547 1.906 0 3.187-1 3.187-2.453M3.641-3.266c0 .782-.297 1.188-.875 1.188-.563 0-.907-.5-.907-1.313 0-.78.297-1.203.891-1.203.578 0 .89.469.89 1.328m.984 4.297c0 .75-.734 1.328-1.703 1.328s-1.61-.468-1.61-1.14c0-.407.22-.782.547-.938.188-.078.579-.125 1.11-.125 1.328 0 1.656.188 1.656.875m0 0"/><path id="g" d="M5.031-2.656v-.563c0-1.172-.812-1.922-2.078-1.922-.375 0-.656.079-.953.25l-.5.313C.781-4.156.453-3.516.453-2.468c0 1.734.86 2.656 2.5 2.656.64 0 1.016-.11 1.719-.47l.25-.53-.14-.157c-.5.282-.829.375-1.282.375-.547 0-1.078-.297-1.344-.75-.187-.297-.265-.562-.281-1.093h1.422a6.6 6.6 0 0 0 1.734-.22m-1.39-.36s-.547.032-.922.032c-.203 0 .062 0-.563-.016l-.344-.016c0-1.078.297-1.515.922-1.515s.907.437.907 1.515m0 0"/><path id="h" d="M9.422.031v-.406l-.36-.016c-.343-.03-.39-.109-.39-.703v-2.031c0-1.5-.39-2.016-1.563-2.016-.359 0-.593.063-.78.22l-.876.671c-.25-.625-.687-.89-1.437-.89-.344 0-.594.062-.782.218l-.875.672v-.828l-.062-.063c-1.125.375-1.438.438-2.031.47v.39l.484.031c.25.031.281.125.281.766v2.39c0 .594-.047.672-.39.703l-.375.016v.406C.734.016 1.203 0 1.672 0c.453 0 .922.016 1.375.031v-.406l-.281-.016c-.36-.03-.407-.109-.407-.703v-2.36c0-.358.454-.75.891-.75q.938 0 .938 1.266v1.844c0 .594-.047.672-.391.703l-.344.016v.406C3.922.016 4.391 0 4.86 0c.485 0 .954.016 1.438.031v-.406l-.39-.016c-.329-.03-.391-.109-.391-.703v-2.36c0-.358.453-.75.89-.75q.938 0 .938 1.266v2.97C7.672.015 8.016 0 8.359 0c.36 0 .704.016 1.063.031m0 0"/><path id="P" d="M8.328-7.031v-.39c-.437.015-.844.03-1.265.03-.422 0-.844-.015-1.266-.03v.39l.5.047c.25.015.406.109.406.28 0 .157-.11.5-.328 1.079L4.828-1.781 3.11-6c-.234-.547-.234-.594-.234-.781 0-.094.14-.203.281-.203l.547-.047v-.39a65 65 0 0 1-1.765.03c-.579 0-1.141-.015-1.72-.03v.39l.454.047c.265.015.437.218.672.78L3.954.032h.827c.14-.36.25-.734.407-1.078l2.265-5.437c.156-.344.297-.485.516-.5Zm0 0"/><path id="Q" d="M3.25.031v-.406l-.375-.016c-.344-.03-.406-.109-.406-.703v-3.984l-.11-.063s-.453.172-.75.25c-.421.11-.609.141-1.078.204l-.156.015v.39l.484.032c.25.031.282.125.282.766v2.39c0 .594-.047.672-.391.703l-.375.016v.406C.844.016 1.313 0 1.781 0c.485 0 .985.016 1.469.031m-.703-7a.734.734 0 1 0-1.47 0 .734.734 0 0 0 1.47 0m0 0"/><path id="R" d="M4.422-1.687c0-.782-.406-1.188-1.39-1.407l-.891-.203c-.422-.094-.61-.265-.61-.61 0-.437.36-.702.969-.702.438 0 .906.203.953.422l.11.625h.39l.078-1.329c-.422-.187-.765-.25-1.343-.25-1.47 0-2.266.594-2.266 1.688 0 .719.39 1.172 1.156 1.36l.938.234c.5.109.687.297.687.687 0 .5-.375.828-1 .828-.515 0-.89-.156-1.219-.562l-.062-.75H.5L.422-.125c.64.219 1.11.313 1.687.313 1.375 0 2.313-.75 2.313-1.875m0 0"/><path id="S" d="M6.36.031v-.406L6-.391c-.344-.03-.39-.109-.39-.703v-3.984l-.11-.063-.766.25c-.359.11-.562.141-1.234.22v.39l.484.031c.266.031.297.125.297.766v1.703c0 .547-.468.984-1.047.984-.625 0-.859-.375-.859-1.422v-2.86l-.11-.062-.765.25c-.36.11-.547.141-1.234.22v.39l.5.031c.25.031.28.125.28.766v1.953c0 1.11.595 1.719 1.642 1.719.328 0 .593-.094.765-.25l.828-.813-.062.906C4.562.016 4.906 0 5.25 0c.375 0 .734.016 1.11.031m0 0"/><path id="T" d="M3.234.031v-.406l-.39-.016c-.328-.03-.39-.109-.39-.703V-7.78l-.095-.078-.78.25c-.313.093-.688.156-1.313.218v.407l.578.03c.234 0 .281.11.281.766v5.094c0 .594-.062.672-.39.703l-.391.016v.406C.813.016 1.28 0 1.75 0c.5 0 .984.016 1.484.031m0 0"/><path id="U" d="M6.297.031v-.406l-.36-.016c-.343-.03-.39-.109-.39-.703V-7.78l-.094-.078-.781.25c-.313.093-.688.156-1.328.218v.407l.578.03c.25 0 .281.11.281.766v1.329l-.219-.094a2.3 2.3 0 0 0-.859-.188c-.36 0-.672.11-.969.282l-.781.515C.75-3.937.453-3.297.453-2.359c0 1.547.813 2.547 2.094 2.547.25 0 .422-.047.531-.141l1.125-.922-.047.828.047.078C4.531.016 4.86 0 5.187 0c.375 0 .735.016 1.11.031M4.203-1.75c0 .5-.5.906-1.11.906-.765 0-1.265-.765-1.265-1.937 0-1.094.39-1.656 1.156-1.656.47 0 .86.218 1.22.687Zm0 0"/><path id="Y" d="M10.781-7.031v-.39c-.406.015-.797.03-1.203.03-.39 0-.781-.015-1.156-.03v.39l.5.047c.25 0 .375.093.375.25 0 .109 0 .203-.031.328l-1.063 4.11-1.5-3.735c-.172-.422-.297-.797-.531-1.453h-.484c-.282.687-.188.437-.563 1.359L3.485-2.25l-.891-4.187c-.016-.094-.031-.188-.031-.282 0-.125.156-.265.328-.265l.453-.047v-.39c-.485.015-.969.03-1.453.03-.578 0-1.141-.015-1.703-.03v.39l.343.047c.203.015.344.14.407.453L2.452.03h.766l.515-1.36 1.688-3.874L7.047-1.11c.156.375.266.765.406 1.14h.797l.36-1.562 1.343-4.703c.14-.5.281-.735.469-.75Zm0 0"/><path id="Z" d="M4.25-5.078a1.6 1.6 0 0 0-.406-.063c-.313 0-.516.141-.938.579l-.469.53v-1.046l-.109-.063-.765.25c-.36.11-.547.141-1.235.22v.39l.485.031c.25.031.28.125.28.766v2.39c0 .594-.046.672-.39.703l-.375.016v.406C.797.016 1.266 0 1.734 0c.547 0 1.094.016 1.641.031v-.406l-.422-.016c-.469-.03-.515-.093-.515-.703V-3.25c0-.344.437-.703.859-.703.281 0 .484.14.625.39l.265-.109Zm0 0"/><path id="aa" d="M6.297-1.812h-.422l-.266 1.03c-.015.079-.593.188-1.093.188L2.89-.625v-2.922c.312-.015.484-.031.734-.031h.719c.406 0 .578.125.625.406l.062.547h.438c-.032-.39-.032-.781-.032-1.187 0-.391 0-.766.032-1.157H5.03l-.062.61c-.032.187-.172.234-.625.234h-.719c-.36 0-.516 0-.734-.016v-2.625l1.578-.03c.61 0 1.062.093 1.078.202l.078.828h.39l.157-1.546-.063-.079c-.406-.03-.64-.03-1.03-.03-.876 0-1.72.03-2.579.03-.687 0-1.39-.015-2.078-.03v.39l.406.047c.485.03.531.109.531 1.062v4.89c0 .36-.062.532-.218.61l-.36.203v.25C1.234.016 1.671 0 2.125 0c.813 0 1.656.031 2.469.031.593 0 .906 0 1.531-.031l.047-.094Zm0 0"/><path id="af" d="M6.406.031v-.406l-.36-.016c-.343-.03-.39-.109-.39-.703v-2.031c0-.828-.11-1.25-.39-1.547C4.984-4.969 4.53-5.14 4-5.14c-.328 0-.594.063-.766.22l-.875.671v-3.531l-.078-.078-.781.25a8 8 0 0 1-1.234.218v.407l.484.03c.25.016.281.11.281.766v5.094c0 .594-.047.672-.39.703l-.375.016v.406C.734.016 1.203 0 1.672 0c.484 0 .984.016 1.469.031v-.406l-.375-.016c-.344-.03-.407-.109-.407-.703v-2.36c0-.39.454-.75.938-.75.719 0 1.015.391 1.015 1.266v2.97C4.642.015 4.97 0 5.298 0c.375 0 .734.016 1.11.031m0 0"/><path id="ag" d="m4.516-.687-.094-.11c-.375.156-.61.203-.938.203-1.078 0-1.734-.86-1.734-2.25 0-1 .375-1.515 1.078-1.515.5 0 .922.218.953.468l.078.657h.391c.063-.703.125-1.063.219-1.547l-.078-.14c-.5-.173-.72-.22-1.125-.22-.407 0-.72.079-.97.235l-.577.343C.75-3.984.406-3.452.406-2.5.406-.766 1.25.188 2.828.188c.547 0 .953-.094 1.453-.375Zm0 0"/><path id="ah" d="M7.719.031v-.437c-.39-.078-.516-.125-.766-.485L4.984-3.875c.61-.266.86-.437 1.157-.75.312-.344.468-.734.468-1.203 0-1.047-.703-1.594-2.078-1.594-.718 0-1.437.031-2.172.031-.64 0-1.296-.015-1.937-.03v.39l.406.047c.485.03.531.109.531 1.062v4.453c0 .969-.015.985-.53 1.032l-.407.03v.438C1 .016 1.547 0 2.109 0c.579 0 1.141.016 1.704.031v-.437l-.407-.031c-.5-.047-.515-.063-.515-1.032V-6.78c.156-.063.359-.094.64-.094.969 0 1.531.5 1.531 1.39 0 .579-.28 1.063-.718 1.329-.282.172-.547.203-.953.203v.25L5.688.03C6.016.016 6.344 0 6.656 0c.36 0 .719.016 1.063.031m0 0"/><path id="ai" d="M5.938-4.594V-5c-.344.016-.688.031-1.047.031-.344 0-.703-.015-1.047-.031v.406l.406.032c.156 0 .25.078.25.171 0 .141-.031.297-.094.454-.343.843-.672 1.703-1.047 2.515l-.953-2.406c-.11-.266-.156-.438-.156-.563 0-.109.078-.171.25-.171l.438-.032V-5c-.47.016-.938.031-1.407.031-.468 0-.937-.015-1.406-.031v.406l.266.032c.187 0 .343.203.53.671L2.47.031h.937c.188-.484.297-.765.422-1.062l1.39-3.14c.11-.235.22-.329.391-.36Zm0 0"/><path id="aj" d="M8.938-4.594V-5c-.36.016-.72.031-1.094.031S7.109-4.984 6.734-5v.406l.47.032c.187 0 .312.093.312.218a.8.8 0 0 1-.032.203l-.39 1.235c-.14.437-.25.719-.438 1.234l-1.5-3.469H4.61c-.515 1.172-1.03 2.344-1.562 3.5l-.64-2.484a1 1 0 0 1-.032-.203c0-.14.094-.234.203-.234l.516-.032V-5c-.485.016-.985.031-1.469.031S.625-4.984.141-5v.406l.359.032c.25 0 .36.109.453.406L2.11.03h.875c.532-1.453.657-1.703 1.485-3.343L5.906.03h.89s.079-.375.376-1.25l1-2.843c.14-.36.25-.5.406-.5Zm0 0"/><path id="an" d="M8.578-3.781c0-2.406-1.422-3.797-3.922-3.797-2.61 0-4.14 1.469-4.14 3.969 0 1.437.515 2.53 1.468 3.156.532.36 1 .5 1.954.61-.579.218-.954.468-1.75 1.093l.109.344c.531-.36.797-.5 1.062-.5.266 0 .438.047 1.079.218l2.171.579c.282.078.5.109.782.109l1.125-.687V.906L8.39.953c-.36.125-.547.203-.75.203-.282 0-.766-.093-1.157-.234L5.172.453C4.859.343 4.594.281 4.078.172c.125 0 .14 0 .234-.016 1.188 0 2.172-.25 2.829-.75.953-.687 1.437-1.765 1.437-3.187M4.594-6.97c.578 0 1.031.188 1.422.563.593.578.937 1.625.937 2.86 0 2.046-.844 3.124-2.437 3.124-.594 0-1.047-.172-1.438-.578-.594-.578-.922-1.625-.922-2.875 0-1.86.703-3.094 2.438-3.094m0 0"/><path id="ao" d="M5.953-4.594V-5c-.344.016-.672.031-1.016.031-.328 0-.671-.015-1.015-.031v.406l.36.032c.171 0 .296.093.296.203a.7.7 0 0 1-.047.25L3.438-1.36l-.922-2.375c-.063-.188-.188-.407-.188-.578 0-.141.125-.25.297-.25L3-4.594V-5c-.484.016-.953.031-1.437.031S.593-4.984.109-5v.406l.375.032c.172 0 .297.171.47.593L2.671.437l-.25.61c-.25.625-.64 1-1 1-.281 0-.516-.125-.766-.406l-.125.03L.344 2.72q.422.187.797.187c.75 0 1.359-.594 1.906-1.875L5.219-4.03c.14-.282.297-.469.453-.5Zm0 0"/><path id="ap" d="M8.25.031v-.406L8-.406c-.312-.047-.469-.156-.61-.485L4.564-7.484h-.766l-.625 1.656-1.969 4.766c-.172.437-.375.64-.61.656l-.327.031v.406C.672.016 1.078 0 1.5 0c.406 0 .813.016 1.219.031v-.406l-.531-.031c-.235-.016-.313-.188-.313-.375 0-.078.016-.172.047-.25l.453-1.219h2.734L5.61-1a.9.9 0 0 1 .063.313c0 .14-.063.265-.219.28l-.578.032v.406C5.438.016 5.985 0 6.531 0c.578 0 1.14.016 1.719.031m-3.39-2.89H2.64l1.094-2.766Zm0 0"/><path id="aq" d="M5.64-2.578c0-1.656-.89-2.563-2.515-2.563-1.734 0-2.687.97-2.687 2.704 0 1.671.89 2.625 2.468 2.625 1.75 0 2.735-1 2.735-2.766m-1.484.344c0 1.328-.312 1.89-1.047 1.89-.78 0-1.187-.797-1.187-2.36 0-1.327.328-1.905 1.078-1.905.781 0 1.156.765 1.156 2.375m0 0"/><path id="ar" d="M5.406-4.312v-.829H4.391l.328-2.203H3.89L3.578-5.14H2.406l.328-2.203h-.812L1.594-5.14H.344v.829h1.125l-.172 1.156H.047v.812h1.125L.812 0h.829l.343-2.344h1.172L2.812 0h.813l.36-2.344h1.14v-.812H4.094l.187-1.156Zm-1.953 0-.172 1.156H2.11l.188-1.156Zm0 0"/><path id="as" d="M4.969.031v-.406L4.28-.406q-.61-.024-.61-.516v-3.5c0-.875.017-1.562.11-2.781l-.14-.11c-1.328.532-2.578.954-3.266 1.11 0 .266.047.484.156.766l1.531-.72c.032 0 .047-.015.063-.015.094 0 .094.11.094.25v5q0 .492-.61.516l-.796.031v.406C1.563.016 2.297 0 3.03 0c.64 0 1.281.016 1.938.031m0 0"/><path id="at" d="M2.219-.703c0-.453-.406-.875-.844-.875-.453 0-.86.406-.86.875 0 .453.391.828.844.828.454 0 .86-.39.86-.828m0-3.39c0-.438-.406-.86-.844-.86a.89.89 0 0 0-.86.86c0 .468.391.843.844.843.454 0 .86-.39.86-.844m0 0"/><path id="au" d="m7.094-7.375-.063-.047a245 245 0 0 1-3.39.031c-1.125 0-2.25-.015-3.391-.03l-.062.046c.078.531.109.906.14 1.734h.438l.046-.75c.032-.328.25-.359.5-.359h1.563v5.281c0 .969-.016.985-.531 1.032l-.406.03v.438C2.516.016 3.063 0 3.625 0c.578 0 1.14.016 1.703.031v-.437l-.406-.031c-.5-.047-.516-.063-.516-1.032V-6.75h1.61c.25 0 .328.031.437.36l.063.75h.437c.016-.829.047-1.204.14-1.735m0 0"/><path id="av" d="M6.516 0v-.375c-.235-.016-.407-.125-.61-.344L3.781-3.125s.828-.766 1.516-1.266a.84.84 0 0 1 .531-.203h.328V-5H4.75L3.578-3.781c-.25.265-.547.547-1.156 1.062V-7.78l-.094-.078-.781.25c-.313.093-.688.156-1.313.218v.407l.579.03c.234 0 .28.11.28.766v5.094c0 .594-.062.672-.39.703l-.39.016v.406C.78.016 1.25 0 1.719 0c.5 0 .984.016 1.484.031v-.406l-.39-.016c-.344-.03-.391-.109-.391-.703v-1.375h.11C3.905-.906 3.515-1.375 4.64 0Zm0 0"/><path id="aw" d="M4.156-6.734v-1.047c-.187-.047-.297-.078-.453-.078-.36 0-.61.109-1.015.468l-.813.672c-.516.438-.594.625-.594 1.5v.469c-.281.188-.5.313-.86.484V-4l.86-.062v2.968c0 .61-.062.672-.468.703l-.438.016v.406C.891.016 1.391 0 1.891 0c.578 0 1.172.016 1.75.031v-.406l-.485-.016c-.281-.015-.484-.093-.515-.203a3 3 0 0 1-.032-.5v-2.968h1.344l.125-.625-.047-.094c-.468.031-.937.047-1.422.047v-1.172c0-.782.141-1.016.641-1.016.234 0 .39.063.734.266Zm0 0"/><path id="ax" d="M5.266.031v-.406c-.344-.031-.563-.219-.938-.86L3.36-2.89l1.063-1.25c.328-.39.437-.453.844-.468V-5H4.234L3.047-3.375l-.563-.922c-.25-.422-.453-.672-.671-.844-.391.11-1.188.282-1.594.36l.094.39c.046-.015.125-.015.156-.015.36 0 .562.156.844.625l.875 1.484L.984-.766c-.203.282-.421.375-.75.391V0h.985c.406-.625.828-1.219 1.265-1.812L3.578.03C3.86.016 4.141 0 4.422 0c.297 0 .562.016.844.031m0 0"/><path id="ay" d="M6.188-3.125c0-1.156-.844-2.016-1.985-2.016-.422 0-.734.125-1.11.422l-.671.547v-.906l-.11-.063-.765.25c-.375.11-.547.157-1.11.22H.314v.39l.5.031c.25.031.28.125.28.766v5.172c0 .593-.062.671-.39.703l-.39.015v.406c.468-.015.937-.03 1.406-.03.531 0 1.062.015 1.578.03v-.406l-.485-.015c-.343-.016-.39-.11-.39-.703V0c.531.156.703.188.969.188.375 0 .75-.204 1.5-.782.797-.547 1.297-1.453 1.297-2.531m-1.375.719c0 1.125-.5 1.844-1.297 1.844-.453 0-.797-.172-1.094-.594V-3.61c.234-.36.594-.547 1.047-.547.844 0 1.344.656 1.344 1.75m0 0"/><path id="az" d="m3.453-3.219-.094-.11H.547c-.11.392-.235.75-.375 1.11l.094.094h2.843c.047-.312.172-.703.344-1.094m0 0"/><path id="aA" d="M2.219-.703c0-.453-.406-.875-.844-.875-.453 0-.86.406-.86.875 0 .453.391.828.844.828.454 0 .86-.39.86-.828m0 0"/><path id="i" d="M7.047-3.375c0-.844-.234-1.547-.688-1.984-.515-.532-1.234-.75-2.453-.75-.719 0-1.422.03-2.14.03-.485 0-.97-.015-1.453-.03v.328l.328.031c.406.031.437.094.437.875v4.016c0 .297-.047.453-.187.515l-.282.172v.203C1.08.016 1.531 0 2 0s.938.031 1.406.031c1.063 0 2.031-.375 2.703-1.047.625-.593.938-1.39.938-2.359m-1.344.25c0 .906-.219 1.594-.656 2.016-.453.453-1.078.64-2.094.64-.234 0-.39 0-.61-.047v-5.109c.22-.031.36-.031.563-.031 1.047 0 1.766.218 2.203.64.407.391.594 1 .594 1.891m0 0"/><path id="j" d="M4.281.031v-.343l-.265-.016c-.203-.016-.25-.125-.25-.547v-2.078c0-.797-.532-1.266-1.438-1.266a2.1 2.1 0 0 0-1.078.297l-.469.297v.61l.266.062.203-.453c.031-.063.281-.125.516-.125.609 0 .89.328.922 1.062l-.797.156C.766-2.077.359-1.719.359-.952c0 .719.36 1.11 1.047 1.11.203 0 .36-.048.438-.11l.843-.64-.046.546.046.078C2.954.016 3.235 0 3.5 0s.531.016.781.031M2.688-1.03c-.188.234-.516.406-.782.406-.281 0-.453-.219-.453-.562 0-.438.188-.625.828-.797l.406-.11Zm0 0"/><path id="k" d="m2.906-.531-.078-.172c-.187.078-.265.11-.406.11-.422 0-.563-.141-.563-.579v-2.14h.954l.078-.579q-.516.047-1.032.047v-.515c0-.47.032-.766.11-1.22l-.125-.093c-.36.172-.64.281-1.094.453.031.469.047.64.047.828v.532l-.594.39v.188l.563-.031v2.328c0 .797.343 1.14 1.125 1.14.265 0 .5-.062.578-.172Zm0 0"/><path id="l" d="m3.719-.562-.094-.094c-.297.125-.5.172-.75.172-.89 0-1.437-.703-1.437-1.86 0-.812.312-1.25.89-1.25.406 0 .75.188.781.39l.063.548H3.5c.047-.578.094-.875.172-1.266l-.063-.125c-.406-.14-.593-.172-.921-.172-.344 0-.594.063-.797.188l-.47.265C.626-3.28.329-2.828.329-2.046c0 1.421.703 2.202 2 2.202.438 0 .781-.078 1.203-.312Zm0 0"/><path id="m" d="M4.64-2.11c0-1.374-.734-2.109-2.062-2.109-1.437 0-2.219.782-2.219 2.203C.36-.625 1.094.156 2.391.156c1.437 0 2.25-.812 2.25-2.265m-1.218.266c0 1.094-.25 1.563-.86 1.563-.656 0-.984-.656-.984-1.938 0-1.094.266-1.578.89-1.578.641 0 .954.64.954 1.953m0 0"/><path id="n" d="M2.656.031v-.343l-.312-.016c-.281-.016-.328-.078-.328-.563v-5.515l-.063-.047-.656.187c-.25.094-.563.141-1.078.188v.328l.469.031c.203 0 .234.094.234.625V-.89c0 .485-.047.547-.328.563L.28-.312V.03C.671.016 1.063 0 1.437 0c.407 0 .813.016 1.22.031m0 0"/><path id="o" d="M4.14-2.172v-.469c0-.968-.671-1.578-1.702-1.578-.313 0-.547.063-.782.203l-.422.25C.641-3.422.375-2.89.375-2.03c0 1.437.703 2.187 2.063 2.187.515 0 .828-.093 1.406-.39l.203-.422-.11-.14c-.421.234-.687.312-1.062.312-.437 0-.89-.235-1.11-.625-.156-.25-.202-.453-.218-.891h1.172c.515 0 .906-.047 1.422-.172M3-2.469s-.469.016-.75.016c-.187 0 .031 0-.469-.016h-.297c0-.89.25-1.25.766-1.25s.75.36.75 1.25m0 0"/><path id="p" d="M2.672.031v-.343l-.313-.016c-.28-.016-.328-.078-.328-.563v-3.28l-.078-.048s-.39.125-.64.188c-.329.093-.5.125-.875.172l-.125.015v.328l.39.032c.219.015.235.093.235.625v1.968c0 .485-.047.547-.313.563l-.312.016V.03C.688.016 1.078 0 1.469 0s.797.016 1.203.031m-.578-5.765a.604.604 0 0 0-.594-.594.597.597 0 0 0-.61.594c0 .328.266.609.594.609a.61.61 0 0 0 .61-.61m0 0"/><path id="q" d="M5.266.031v-.343l-.297-.016c-.282-.016-.328-.078-.328-.563v-1.671c0-.688-.079-1.032-.313-1.282s-.594-.375-1.031-.375c-.281 0-.485.047-.64.172l-.704.547v-.672l-.062-.047c-.938.297-1.188.36-1.672.375v.328l.406.032c.203.015.234.093.234.625v1.968c0 .485-.046.547-.328.563L.22-.312V.03C.594.016.984 0 1.375 0c.406 0 .797.016 1.203.031v-.343l-.312-.016c-.282-.016-.313-.078-.313-.563v-1.953c0-.312.36-.61.75-.61.594 0 .844.313.844 1.032V.031C3.828.016 4.094 0 4.359 0c.297 0 .594.016.907.031m0 0"/><path id="r" d="M6.844-5.781v-.328c-.344.015-.688.03-1.047.03-.328 0-.688-.015-1.031-.03v.328l.422.031c.203.016.328.094.328.234s-.094.407-.282.891L3.97-1.469 2.563-4.937c-.188-.454-.188-.485-.188-.641 0-.078.094-.156.219-.172l.453-.031v-.328c-.485.015-.969.03-1.453.03-.469 0-.938-.015-1.422-.03v.328l.375.031c.219.016.375.188.562.64L3.25.032h.672c.125-.297.219-.61.344-.89L6.14-5.33c.109-.28.234-.405.422-.421Zm0 0"/><path id="s" d="M5.172.031v-.343l-.297-.016c-.281-.016-.312-.078-.312-.563v-5.515l-.079-.047-.64.187c-.266.094-.563.141-1.094.188v.328l.484.031c.188 0 .235.094.235.625V-4l-.188-.078a2 2 0 0 0-.719-.14 1.4 1.4 0 0 0-.78.234l-.657.422c-.5.328-.75.843-.75 1.609 0 1.297.672 2.11 1.719 2.11a.78.78 0 0 0 .437-.11L3.47-.72l-.047.672.047.078C3.734.016 4 0 4.266 0c.312 0 .609.016.906.031M3.469-1.437c0 .406-.422.734-.922.734-.64 0-1.047-.61-1.047-1.578 0-.906.328-1.375.953-1.375.39 0 .719.187 1.016.578Zm0 0"/><path id="t" d="M4.797.375c0-.75-.422-1.11-1.328-1.11H3.25l-1.297.032h-.047c-.25 0-.375-.094-.375-.266 0-.14.078-.234.25-.343.172 0 .25.015.36.015.625 0 1.203-.203 1.562-.578.281-.281.39-.594.39-1.047 0-.14 0-.25-.046-.422l.703.047.047-.578c-.375.031-.547.047-.75.047-.063 0-.172 0-.313-.016-.375-.265-.796-.375-1.359-.375-1.156 0-1.953.657-1.953 1.594 0 .344.11.64.328.86.172.187.313.265.625.374l-.64.485C.64-.844.577-.656.577-.47c0 .313.172.485.61.594l-.72.438C.329.64.235.875.235 1.109c0 .782.75 1.282 1.938 1.282 1.562 0 2.625-.828 2.625-2.016M3-2.687c0 .64-.25.968-.719.968s-.75-.39-.75-1.078c0-.64.25-.984.735-.984.468 0 .734.39.734 1.094M3.797.858c0 .61-.594 1.079-1.39 1.079-.798 0-1.329-.375-1.329-.938 0-.328.188-.64.453-.766.14-.078.469-.093.907-.093 1.093 0 1.359.14 1.359.718m0 0"/><path id="v" d="M5.234.031v-.343l-.296-.016c-.297-.016-.329-.078-.329-.563v-3.28l-.093-.048-.625.188c-.297.093-.453.125-1.016.187v.328l.406.032c.203.015.235.093.235.625v1.39c0 .453-.391.813-.86.813-.515 0-.703-.313-.703-1.172v-2.344l-.094-.047-.625.188c-.296.093-.437.125-1.015.187v.328l.406.032c.203.015.234.093.234.625v1.609c0 .906.485 1.406 1.36 1.406.25 0 .484-.078.61-.203l.687-.672-.047.75C3.766.016 4.03 0 4.329 0c.296 0 .593.016.905.031m0 0"/><path id="w" d="M3.484-4.172a1 1 0 0 0-.328-.047c-.25 0-.422.11-.765.469L2-3.312v-.86l-.094-.047-.625.188C1-3.938.828-3.906.266-3.844v.328l.406.032c.203.015.234.093.234.625v1.968c0 .485-.047.547-.328.563l-.312.016V.03C.656.016 1.046 0 1.422 0c.453 0 .906.016 1.36.031v-.343l-.344-.016C2.047-.344 2-.391 2-.891v-1.78c0-.282.375-.579.719-.579q.328 0 .515.328l.204-.094Zm0 0"/><path id="x" d="M4.156-1.39h-.36l-.03.28c-.094.516-.203.61-.641.61H1.672l2.406-3.297v-.297c0 .016-1.266.016-1.375.016-.719 0-1.406 0-2.125-.016 0-.015-.062.016-.062.016L.5-2.875h.328l.031-.219c.063-.437.188-.531.688-.531h1.047C1.797-2.5 1-1.359.14-.265V.03C.625.016 1.078 0 1.563 0c.812 0 1.625.016 2.453.031l.03-.047c0-.39.048-.937.11-1.375m0 0"/><path id="y" d="M4.89-3.781v-.328c-.265.015-.546.015-.827.015-.282 0-.563 0-.829-.015v.328l.297.015c.14.016.235.094.235.188a1 1 0 0 1-.032.203l-.906 2.25-.75-1.953c-.062-.14-.156-.328-.156-.469 0-.125.094-.203.234-.219l.313-.015v-.328c-.39.015-.797.015-1.188.015s-.797 0-1.187-.015v.328l.312.015c.125.016.235.157.375.5L2.203.36l-.219.5c-.203.516-.515.813-.812.813-.234 0-.422-.094-.64-.328l-.095.031-.156.86c.235.109.438.156.657.156.625 0 1.109-.485 1.578-1.547l1.78-4.156c.11-.235.235-.391.36-.422Zm0 0"/><path id="z" d="M3.625-1.39c0-.641-.328-.985-1.125-1.157l-.734-.156c-.36-.094-.5-.219-.5-.5 0-.36.297-.594.78-.594.376 0 .767.172.782.36l.094.515h.328l.063-1.094c-.344-.156-.626-.203-1.094-.203C1-4.219.344-3.734.344-2.844c0 .594.328.969.953 1.125l.781.188c.406.093.563.25.563.562 0 .422-.313.688-.828.688-.422 0-.735-.125-1-.469l-.047-.61h-.36L.344-.093c.531.172.922.25 1.39.25 1.141 0 1.891-.625 1.891-1.547m0 0"/><path id="A" d="M7.063-3.11c0-1.984-1.172-3.124-3.235-3.124-2.14 0-3.406 1.218-3.406 3.265C.422-1.78.844-.89 1.625-.375c.453.297.828.406 1.61.516-.47.172-.782.375-1.438.89l.094.282c.437-.297.656-.407.875-.407s.359.031.89.172l1.781.484c.235.063.407.094.641.094L7 1.078V.75l-.094.031c-.312.11-.453.172-.625.172-.234 0-.625-.078-.953-.203L4.25.375C4 .281 3.781.235 3.36.141h.187c.984 0 1.797-.22 2.328-.625.781-.578 1.188-1.47 1.188-2.625M3.78-5.733c.469 0 .844.156 1.156.453.5.484.782 1.36.782 2.36 0 1.687-.703 2.577-2 2.577-.5 0-.86-.156-1.188-.468-.484-.485-.765-1.344-.765-2.375 0-1.532.578-2.547 2.015-2.547m0 0"/><path id="B" d="M4.89-3.781v-.328c-.296.015-.577.015-.859.015-.297 0-.593 0-.875-.015v.328l.344.015c.125.016.203.079.203.157 0 .109-.031.234-.078.375-.281.703-.562 1.39-.86 2.062L1.97-3.14c-.078-.234-.125-.359-.125-.468 0-.079.078-.141.203-.157l.375-.015v-.328c-.39.015-.766.015-1.156.015-.391 0-.782 0-1.172-.015v.328l.234.015c.14.016.266.172.422.563L2.031.03h.781c.141-.406.235-.625.329-.875l1.156-2.578c.094-.203.172-.281.328-.312Zm0 0"/><path id="C" d="M5.328-4.766c0-.89-.937-1.343-1.703-1.343-.562 0-1.156.03-1.719.03-.531 0-1.031-.015-1.562-.03v.328l.344.031c.39.031.421.094.421.875v3.672c0 .797 0 .812-.421.844l-.344.03v.36C.813.016 1.28 0 1.75 0c.5 0 .984.016 1.484.031v-.36l-.421-.03c-.422-.032-.438-.063-.438-.844v-4.375c.14-.047.297-.078.547-.078.734 0 1.11.406 1.11 1.203 0 .719-.36 1.172-.923 1.172h-.312v.36c.156.03.328.062.515.062 1.157 0 2.016-.813 2.016-1.907m0 0"/><path id="D" d="m6.234-5.719-.062-.093c-.813-.329-1.313-.422-2.094-.422C1.812-6.234.391-5.031.391-3.11c0 2 1.39 3.265 3.593 3.265.829 0 1.36-.125 2.032-.5l.187-.437-.11-.11a3.6 3.6 0 0 1-1.75.454c-1.577 0-2.609-1.11-2.609-2.797 0-1.547.875-2.5 2.297-2.5.688 0 1.11.172 1.594.625l.047.765h.36c.093-.86.124-1.031.202-1.375m0 0"/><path id="E" d="M5.266.031v-.343l-.297-.016c-.282-.016-.328-.078-.328-.563v-1.671c0-.688-.079-1.032-.313-1.282s-.594-.375-1.031-.375c-.281 0-.485.047-.64.172l-.704.547v-2.906l-.078-.047-.64.187C1-6.187.702-6.14.218-6.078v.328l.406.031c.203.016.234.094.234.625V-.89c0 .485-.046.547-.328.563L.22-.312V.03C.594.016.984 0 1.375 0c.406 0 .797.016 1.203.031v-.343l-.312-.016c-.282-.016-.313-.078-.313-.563v-1.953c0-.312.36-.61.75-.61.594 0 .844.313.844 1.048V.03C3.828.016 4.094 0 4.359 0c.297 0 .594.016.907.031m0 0"/><path id="F" d="M6.344.031v-.36c-.313-.062-.422-.108-.625-.405L4.094-3.187c.5-.22.718-.36.953-.61.25-.297.39-.61.39-1 0-.86-.578-1.312-1.703-1.312-.593 0-1.203.03-1.78.03a55 55 0 0 1-1.61-.03v.328l.344.031c.39.031.421.094.421.875v3.672c0 .797 0 .812-.421.844l-.344.03v.36C.813.016 1.28 0 1.734 0c.47 0 .938.016 1.407.031v-.36l-.328-.03c-.422-.032-.438-.047-.438-.844v-4.375c.125-.047.297-.078.531-.078.797 0 1.25.422 1.25 1.14 0 .485-.218.891-.593 1.094-.22.14-.438.172-.766.172v.203L4.672.031C4.938.016 5.203 0 5.484 0s.579.016.86.031m0 0"/><path id="G" d="M5.078-2.562c0-.954-.687-1.657-1.61-1.657-.359 0-.609.094-.937.344l-.547.438v-.735l-.078-.047-.625.188c-.312.11-.468.14-.922.187H.266v.328l.39.032c.219.015.235.093.235.625v4.25c0 .484-.032.562-.313.578l-.312.015v.329c.375-.016.765-.032 1.156-.032.422 0 .86.016 1.297.031v-.328l-.406-.015c-.282-.016-.329-.094-.329-.578V0c.454.125.594.156.813.156.297 0 .61-.172 1.219-.656.672-.437 1.062-1.172 1.062-2.062m-1.125.578c0 .937-.406 1.53-1.062 1.53-.375 0-.657-.155-.907-.5v-2.015c.204-.297.5-.453.875-.453.688 0 1.094.547 1.094 1.438m0 0"/><path id="H" d="M4.984-2.516c0-1-.671-1.703-1.625-1.703-.343 0-.609.094-.921.344l-.547.438v-2.97l-.063-.046-.656.187c-.25.094-.563.141-1.078.188v.328l.469.031c.203 0 .234.094.234.625v3.64C.797-.983.766-.436.719.032L.922.11l.344-.28c.406.218.78.327 1.172.327.28 0 .515-.078.78-.234.36-.203.766-.484 1.032-.688.438-.375.734-1.062.734-1.75m-1.125.532c0 .937-.406 1.53-1.062 1.53-.375 0-.656-.155-.906-.5v-2.015a1 1 0 0 1 .859-.453c.688 0 1.11.547 1.11 1.438m0 0"/><path id="I" d="M5.36 0v-.312c-.188-.016-.344-.094-.5-.282L3.11-2.563s.687-.64 1.25-1.046a.74.74 0 0 1 .437-.172h.266v-.328H3.906l-.969 1a9 9 0 0 1-.953.875v-4.172l-.062-.047-.64.187c-.266.094-.579.141-1.094.188v.328l.468.031c.203 0 .235.094.235.625V-.89c0 .485-.032.547-.313.563l-.312.016V.03C.64.016 1.03 0 1.422 0c.406 0 .797.016 1.203.031v-.343l-.312-.016c-.282-.016-.329-.078-.329-.563v-1.14h.094C3.203-.75 2.891-1.125 3.813 0Zm0 0"/><path id="J" d="M5.016-1.969c0-.812-.47-1.343-1.36-1.578l-1.015-.281c-.672-.172-.953-.438-.953-.906 0-.625.484-1.047 1.203-1.047.468 0 .875.172 1.218.5l.047.734h.375c0-.578.047-1.016.125-1.281l-.047-.094a4.2 4.2 0 0 0-1.656-.312c-1.5 0-2.375.718-2.375 1.922 0 .765.453 1.328 1.313 1.593l1.25.375c.5.14.75.422.75.86 0 .656-.578 1.156-1.36 1.156-.61 0-1.172-.266-1.469-.688L1-1.812H.64C.64-1.141.61-.766.517-.266c.656.297 1.172.422 1.859.422 1.61 0 2.64-.828 2.64-2.125m0 0"/><path id="K" d="m2.844-2.64-.078-.094H.453c-.094.312-.203.609-.312.906l.078.078h2.344c.03-.25.14-.578.28-.89m0 0"/><path id="L" d="M5.344.031v-.343l-.328-.016c-.266-.016-.313-.078-.313-.563v-3.328h-.078l-.64.188c-.297.093-.641.14-1.063.14h-1v-.968c0-.641.125-.828.531-.828.188 0 .328.046.61.218l.14-.062v-.875a1.8 1.8 0 0 0-.375-.047c-.297 0-.5.078-.844.375l-.656.547c-.437.36-.5.515-.5 1.234v.39c-.234.157-.406.25-.703.407v.203l.703-.047V-.89c0 .485-.031.547-.375.563l-.36.016V.03C.517.016.939 0 1.376 0c.406 0 .813.016 1.219.031v-.343L2.28-.328c-.312-.016-.36-.078-.36-.563v-2.453h1l.063-.156h.282c.234 0 .343.156.343.578V-.89c0 .485-.046.547-.328.563l-.312.016V.03C3.359.016 3.734 0 4.125 0c.406 0 .813.016 1.219.031m-.516-5.765c0-.313-.266-.594-.578-.594-.344 0-.625.266-.625.594s.281.609.61.609a.607.607 0 0 0 .593-.61m0 0"/><path id="M" d="M7.75.031v-.343l-.297-.016c-.281-.016-.328-.078-.328-.563v-1.671c0-1.235-.312-1.657-1.281-1.657-.297 0-.485.047-.64.172l-.72.547c-.203-.516-.562-.719-1.187-.719-.281 0-.485.047-.64.172l-.704.547v-.672l-.062-.047c-.938.297-1.188.36-1.672.375v.328l.406.032c.203.015.234.093.234.625v1.968c0 .485-.046.547-.328.563L.22-.312V.03C.594.016.984 0 1.375 0c.375 0 .766.016 1.14.031v-.343l-.25-.016c-.28-.016-.312-.078-.312-.563v-1.953c0-.297.36-.61.719-.61.515 0 .765.345.765 1.048v1.515c0 .485-.03.547-.312.563l-.281.016V.03C3.234.016 3.609 0 4 0s.781.016 1.172.031v-.343l-.313-.016c-.28-.016-.328-.078-.328-.563v-1.953c0-.297.375-.61.735-.61.515 0 .765.345.765 1.048V.03C6.313.016 6.594 0 6.875 0c.297 0 .578.016.875.031m0 0"/><path id="N" d="M6.797.031v-.343l-.219-.016c-.25-.047-.375-.14-.5-.39L3.766-6.157h-.641l-.516 1.36L.984-.876c-.14.36-.296.531-.5.547L.22-.312V.03C.563.016.89 0 1.234 0c.329 0 .672.016 1.016.031v-.343l-.453-.016c-.188-.016-.25-.156-.25-.313 0-.062 0-.14.031-.203l.375-1h2.25L4.61-.828a.7.7 0 0 1 .047.265c0 .11-.031.22-.172.235l-.468.016V.03C4.469.016 4.922 0 5.375 0c.469 0 .938.016 1.422.031M4-2.344H2.172l.89-2.281Zm0 0"/><path id="O" d="M4.328.031v-.343c-.281-.016-.469-.188-.766-.704l-.796-1.359.859-1.031c.281-.313.375-.375.703-.375v-.328h-.844l-.968 1.343-.47-.765c-.202-.344-.374-.547-.562-.688-.312.078-.968.219-1.312.282l.078.328c.047-.016.11-.016.14-.016.298 0 .454.125.688.516l.719 1.218L.813-.625C.64-.406.469-.328.188-.312V0H1c.344-.516.688-1 1.047-1.484L2.937.03C3.173.016 3.407 0 3.641 0s.453.016.687.031m0 0"/><path id="V" d="M6.953-2.172v-.297c-.437.016-.89.016-1.344.016-.421 0-.843 0-1.28-.016v.36l.484.015c.375.016.5.11.5.328v1.188c-.454.172-.75.234-1.141.234-1.438 0-2.406-1.156-2.406-2.86 0-1.593.859-2.53 2.328-2.53.656 0 1.343.156 1.828.625l.047.765h.36c.093-.86.124-1.031.202-1.375l-.062-.093c-.813-.297-1.453-.422-2.328-.422C1.844-6.234.42-5.047.42-3.11c0 1.984 1.376 3.265 3.5 3.265.907 0 1.595-.14 2.673-.547v-1.453c0-.218.031-.25.36-.328m0 0"/><path id="W" d="M3.14.031v-.36l-.328-.03c-.421-.032-.437-.047-.437-.844v-3.672c0-.797.016-.812.438-.844l.328-.031v-.36c-.47.016-.938.032-1.407.032-.453 0-.921-.016-1.39-.031v.359l.344.031c.421.032.421.047.421.844v3.672c0 .797 0 .812-.421.844l-.344.03v.36C.813.016 1.28 0 1.734 0c.47 0 .938.016 1.407.031m0 0"/><path id="X" d="M5.172-1.484h-.344l-.203.843c-.031.063-.5.141-.906.141L2.375-.516v-2.406c.25-.015.406-.015.61-.015h.578c.343 0 .484.093.515.328l.063.453H4.5c-.031-.328-.031-.656-.031-.969 0-.328 0-.64.031-.969h-.36l-.062.516c-.016.14-.125.187-.516.187h-.578c-.296 0-.421 0-.609-.015v-2.156l1.297-.032c.5 0 .875.078.89.172l.063.672h.328l.125-1.266-.062-.062c-.328-.016-.516-.031-.844-.031-.703 0-1.406.03-2.125.03-.563 0-1.125-.015-1.703-.03v.328l.344.031c.39.031.421.094.421.875v4.016c0 .312-.046.453-.171.515L.64-.172v.203C1.016.016 1.375 0 1.75 0c.672 0 1.36.031 2.031.031.485 0 .735 0 1.25-.031l.047-.078Zm0 0"/><path id="ab" d="M3.422-5.531v-.875a1.8 1.8 0 0 0-.375-.047c-.297 0-.5.078-.844.375l-.656.547c-.438.36-.5.515-.5 1.234v.39c-.234.157-.406.25-.703.407v.203l.703-.047V-.89c0 .485-.047.547-.375.563l-.36.016V.03C.72.016 1.142 0 1.563 0c.47 0 .954.016 1.438.031v-.343l-.406-.016c-.235 0-.39-.063-.422-.156a2 2 0 0 1-.031-.407v-2.453H3.25l.11-.515-.047-.063c-.391.016-.782.031-1.172.031v-.968c0-.641.125-.828.53-.828.188 0 .329.046.61.218Zm0 0"/><path id="ac" d="m5.828-6.062-.047-.047c-.922.015-1.86.03-2.781.03-.937 0-1.86-.015-2.797-.03l-.047.046c.063.438.078.75.11 1.422h.359l.047-.609c.015-.281.203-.297.406-.297H2.36v4.344c0 .797-.015.812-.437.844l-.328.03v.36C2.062.016 2.516 0 2.984 0c.47 0 .938.016 1.407.031v-.36l-.344-.03c-.422-.032-.422-.047-.422-.844v-4.344h1.328c.203 0 .25.016.36.297l.046.61h.36c.015-.673.047-.985.11-1.423m0 0"/><path id="ad" d="m4.828-6.016-.047-.062c-.343-.031-.515-.031-.86-.031-.687 0-1.39.03-2.077.03-.532 0-1.063-.015-1.594-.03v.328l.328.031c.406.031.438.094.438.875v3.672c0 .797-.016.812-.438.844L.25-.33v.36C.719.016 1.172 0 1.64 0c.5 0 1 .016 1.485.031v-.36l-.422-.03c-.406-.032-.422-.063-.422-.844v-1.688c.25-.015.406-.03.594-.03h.469c.328 0 .484.108.5.343l.062.437h.36c-.016-.312-.032-.64-.032-.968 0-.297.016-.61.032-.922h-.36l-.062.484c-.016.14-.125.188-.5.188h-.469c-.297 0-.422 0-.594-.016v-2.187l1.031-.032c.61 0 1 .063 1 .172l.079.672h.312Zm0 0"/><path id="ae" d="M2.031-.875v-3.297l-.078-.047-.64.188c-.235.078-.5.14-.844.172l-.156.015v.328l.39.032c.219.015.235.093.235.625V.344C.938 1.53.75 2 .265 2H.063l-.032.047.078.328c.063 0 .25.016.282.016.422 0 .843-.282 1.172-.75.359-.532.468-1.141.468-2.516m.063-4.86a.604.604 0 0 0-.594-.593.597.597 0 0 0-.61.594c0 .328.266.609.594.609a.61.61 0 0 0 .61-.61m0 0"/><path id="ak" d="M5.484-1.937c0-.47-.187-.875-.5-1.094-.328-.219-.625-.313-1.343-.344.75-.281 1.015-.406 1.297-.656.203-.203.343-.532.343-.86 0-.828-.578-1.218-1.703-1.218-.578 0-1.14.03-1.719.03-.5 0-1-.015-1.515-.03v.328l.344.031c.39.031.421.094.421.875v4.016c0 .312-.046.453-.171.515L.64-.172v.203A28 28 0 0 1 1.78 0c.422 0 .844.016 1.266.031 1.172 0 2.437-.812 2.437-1.968m-1.343.125c0 .937-.422 1.343-1.375 1.343-.141 0-.235 0-.391-.031v-2.625h.266c1.047 0 1.5.406 1.5 1.313m-.188-2.891c0 .781-.406 1.11-1.312 1.11h-.266v-2.032c.219-.031.344-.031.516-.031.734 0 1.062.297 1.062.953m0 0"/><path id="al" d="M8.688.031v-.36l-.344-.03c-.422-.032-.422-.047-.422-.844v-3.672c0-.781.031-.844.422-.875l.344-.031v-.328c-.36.015-.704.03-1.047.03-.344 0-.688-.015-1.032-.03l-.437 1.015-1.64 3.39c-.704-1.468-1.407-2.921-2.094-4.405-.36.015-.72.03-1.079.03s-.718-.015-1.078-.03v.328l.344.031c.39.031.422.094.422.875v3.672c0 .781-.031.828-.422.875l-.344.016V.03C.625.016.984 0 1.312 0 1.656 0 2 .016 2.345.031v-.343l-.328-.016c-.407-.047-.438-.078-.438-.875v-3.75L3.641-.656c.062.14.156.344.328.75h.297c.172-.422.203-.5.547-1.188l1.843-3.843v3.734c0 .797-.015.812-.437.844l-.328.03v.36C6.359.016 6.813 0 7.28 0c.469 0 .938.016 1.407.031m0 0"/><path id="am" d="M7.36-3.781v-.328c-.313.015-.61.015-.907.015-.312 0-.61 0-.906-.015v.328l.375.015c.156.016.25.094.25.204 0 .03-.016.124-.016.156l-.328 1.015c-.11.36-.203.594-.344 1.016L4.25-4.219h-.453c-.438.953-.86 1.907-1.297 2.86l-.531-2.032c0-.03-.016-.125-.016-.171 0-.11.078-.204.172-.204l.422-.015v-.328c-.406.015-.813.015-1.203.015-.407 0-.828 0-1.235-.015v.328l.297.015c.219.016.297.11.375.344L1.734.031h.72C2.89-1.172 3-1.375 3.671-2.719L4.859.031h.735S5.656-.28 5.906-1l.828-2.344c.094-.281.188-.406.313-.422Zm0 0"/><path id="u" d="m6.719-6.406-.266-.25a22 22 0 0 0-4.25 5.953A14.7 14.7 0 0 0 .656-2.484l-.265.28c.672.673 1.172 1.407 1.5 2.267h.765a17.26 17.26 0 0 1 4.063-6.47m0 0"/><path id="aB" d="M4.563.031v-.328l-.579-.031c-.593-.031-.703-.156-.703-.719v-6.469l-.156-.046c-.703.359-1.484.687-2.469 1.046l.078.47h.11c.469-.22.953-.438 1.437-.657.063 0 .078.11.078.36v5.296c0 .563-.109.688-.703.719l-.61.031v.328A69 69 0 0 1 2.845 0c.562 0 1.14.016 1.719.031m0 0"/><path id="aC" d="M5.063-2.25c0-.875-.407-1.344-1.657-1.906 1-.672 1.344-1.14 1.344-1.782 0-.937-.766-1.578-1.922-1.578-1.297 0-2.25.829-2.25 1.97 0 .75.297 1.155 1.25 1.78-.437.204-.625.329-.875.563a2.03 2.03 0 0 0-.625 1.469c0 1.125.906 1.953 2.14 1.953 1.407 0 2.595-1.11 2.595-2.469m-.86.469c0 .906-.687 1.625-1.578 1.625-.922 0-1.531-.656-1.531-1.672 0-.797.328-1.297 1.125-1.781l.875.39c.687.313 1.11.844 1.11 1.438m-.187-4.047c0 .625-.282 1.047-.985 1.516l-.594-.297c-.687-.344-1.046-.782-1.046-1.328 0-.72.53-1.204 1.297-1.204.796 0 1.328.516 1.328 1.313m0 0"/></defs><use xlink:href="#a" x="125.798" y="140.742"/><use xlink:href="#b" x="134.885" y="140.742"/><use xlink:href="#c" x="140.34" y="140.742"/><use xlink:href="#b" x="144.082" y="140.742"/><use xlink:href="#d" x="152.263" y="140.742"/><use xlink:href="#b" x="163.173" y="140.742"/><use xlink:href="#e" x="168.627" y="140.742"/><use xlink:href="#b" x="175.293" y="140.742"/><use xlink:href="#f" x="180.747" y="140.742"/><use xlink:href="#g" x="186.649" y="140.742"/><use xlink:href="#h" x="192.103" y="140.742"/><use xlink:href="#g" x="201.802" y="140.742"/><use xlink:href="#e" x="207.256" y="140.742"/><use xlink:href="#c" x="213.922" y="140.742"/><path fill="none" stroke="#000" stroke-miterlimit="10" stroke-width=".398" d="M220.281 140.543h264.172M125.797 148.508h10.785M125.996 158.242v-9.734M136.383 158.242v-9.734M125.797 158.242h10.785"/><use xlink:href="#i" x="141.064" y="156.782"/><use xlink:href="#j" x="148.533" y="156.782"/><use xlink:href="#k" x="153.016" y="156.782"/><use xlink:href="#j" x="156.092" y="156.782"/><use xlink:href="#l" x="162.816" y="156.782"/><use xlink:href="#m" x="166.798" y="156.782"/><use xlink:href="#n" x="171.783" y="156.782"/><use xlink:href="#n" x="174.769" y="156.782"/><use xlink:href="#o" x="177.754" y="156.782"/><use xlink:href="#l" x="182.238" y="156.782"/><use xlink:href="#k" x="186.219" y="156.782"/><use xlink:href="#p" x="189.204" y="156.782"/><use xlink:href="#m" x="192.19" y="156.782"/><use xlink:href="#q" x="197.176" y="156.782"/><path fill="none" stroke="#000" stroke-miterlimit="10" stroke-width=".398" d="M125.797 165.543h10.785M125.996 175.281v-9.738M136.383 175.281v-9.738M125.797 175.281h10.785"/><use xlink:href="#r" x="141.064" y="173.818"/><use xlink:href="#j" x="147.278" y="173.818"/><use xlink:href="#n" x="151.761" y="173.818"/><use xlink:href="#p" x="154.747" y="173.818"/><use xlink:href="#s" x="157.732" y="173.818"/><use xlink:href="#j" x="163.211" y="173.818"/><use xlink:href="#k" x="167.694" y="173.818"/><use xlink:href="#p" x="170.68" y="173.818"/><use xlink:href="#m" x="173.666" y="173.818"/><use xlink:href="#q" x="178.651" y="173.818"/><path fill="none" stroke="#000" stroke-miterlimit="10" stroke-width=".398" d="M125.797 182.578h10.785M125.996 192.316v-9.738M136.383 192.316v-9.738M125.797 192.316h10.785"/><use xlink:href="#i" x="141.064" y="190.855"/><use xlink:href="#j" x="148.533" y="190.855"/><use xlink:href="#k" x="153.016" y="190.855"/><use xlink:href="#j" x="156.092" y="190.855"/><use xlink:href="#l" x="162.816" y="190.855"/><use xlink:href="#n" x="166.798" y="190.855"/><use xlink:href="#o" x="169.783" y="190.855"/><use xlink:href="#j" x="174.267" y="190.855"/><use xlink:href="#q" x="178.75" y="190.855"/><use xlink:href="#p" x="184.228" y="190.855"/><use xlink:href="#q" x="187.214" y="190.855"/><use xlink:href="#t" x="192.692" y="190.855"/><use xlink:href="#u" x="127.392" y="207.891"/><path fill="none" stroke="#000" stroke-miterlimit="10" stroke-width=".398" d="M125.797 199.613h10.785M125.996 209.352v-9.739M136.383 209.352v-9.739M125.797 209.352h10.785"/><use xlink:href="#i" x="141.064" y="207.891"/><use xlink:href="#j" x="148.533" y="207.891"/><use xlink:href="#k" x="153.016" y="207.891"/><use xlink:href="#j" x="156.092" y="207.891"/><use xlink:href="#l" x="162.816" y="207.891"/><use xlink:href="#v" x="166.798" y="207.891"/><use xlink:href="#w" x="172.276" y="207.891"/><use xlink:href="#j" x="175.764" y="207.891"/><use xlink:href="#k" x="180.247" y="207.891"/><use xlink:href="#p" x="183.233" y="207.891"/><use xlink:href="#m" x="186.219" y="207.891"/><use xlink:href="#q" x="191.204" y="207.891"/><use xlink:href="#j" x="198.924" y="207.891"/><use xlink:href="#q" x="203.407" y="207.891"/><use xlink:href="#s" x="208.886" y="207.891"/><use xlink:href="#m" x="141.064" y="219.946"/><use xlink:href="#w" x="146.049" y="219.946"/><use xlink:href="#t" x="149.627" y="219.946"/><use xlink:href="#j" x="154.612" y="219.946"/><use xlink:href="#q" x="159.095" y="219.946"/><use xlink:href="#p" x="164.574" y="219.946"/><use xlink:href="#x" x="167.56" y="219.946"/><use xlink:href="#j" x="172.043" y="219.946"/><use xlink:href="#k" x="176.526" y="219.946"/><use xlink:href="#p" x="179.512" y="219.946"/><use xlink:href="#m" x="182.498" y="219.946"/><use xlink:href="#q" x="187.483" y="219.946"/><path fill="none" stroke="#000" stroke-miterlimit="10" stroke-width=".398" d="M248.672 148.508h10.781M248.871 158.242v-9.734M259.254 158.242v-9.734M248.672 158.242h10.781"/><use xlink:href="#i" x="263.937" y="156.782"/><use xlink:href="#j" x="271.406" y="156.782"/><use xlink:href="#k" x="275.889" y="156.782"/><use xlink:href="#j" x="278.956" y="156.782"/><use xlink:href="#j" x="285.68" y="156.782"/><use xlink:href="#q" x="290.164" y="156.782"/><use xlink:href="#j" x="295.642" y="156.782"/><use xlink:href="#n" x="300.125" y="156.782"/><use xlink:href="#y" x="302.941" y="156.782"/><use xlink:href="#z" x="307.926" y="156.782"/><use xlink:href="#p" x="311.907" y="156.782"/><use xlink:href="#z" x="314.893" y="156.782"/><use xlink:href="#u" x="250.265" y="173.818"/><path fill="none" stroke="#000" stroke-miterlimit="10" stroke-width=".398" d="M248.672 165.543h10.781M248.871 175.281v-9.738M259.254 175.281v-9.738M248.672 175.281h10.781"/><use xlink:href="#A" x="263.937" y="173.818"/><use xlink:href="#v" x="271.406" y="173.818"/><use xlink:href="#j" x="276.884" y="173.818"/><use xlink:href="#q" x="281.368" y="173.818"/><use xlink:href="#k" x="286.846" y="173.818"/><use xlink:href="#p" x="289.832" y="173.818"/><use xlink:href="#k" x="292.818" y="173.818"/><use xlink:href="#j" x="295.884" y="173.818"/><use xlink:href="#k" x="300.367" y="173.818"/><use xlink:href="#p" x="303.353" y="173.818"/><use xlink:href="#B" x="306.339" y="173.818"/><use xlink:href="#o" x="311.109" y="173.818"/><use xlink:href="#C" x="317.825" y="173.818"/><use xlink:href="#n" x="323.303" y="173.818"/><use xlink:href="#m" x="326.289" y="173.818"/><use xlink:href="#k" x="331.275" y="173.818"/><use xlink:href="#k" x="334.26" y="173.818"/><use xlink:href="#p" x="337.246" y="173.818"/><use xlink:href="#q" x="340.232" y="173.818"/><use xlink:href="#t" x="345.71" y="173.818"/><use xlink:href="#j" x="263.937" y="185.873"/><use xlink:href="#q" x="268.42" y="185.873"/><use xlink:href="#s" x="273.899" y="185.873"/><use xlink:href="#D" x="281.61" y="185.873"/><use xlink:href="#E" x="288.083" y="185.873"/><use xlink:href="#j" x="293.562" y="185.873"/><use xlink:href="#w" x="298.045" y="185.873"/><use xlink:href="#k" x="301.757" y="185.873"/><use xlink:href="#p" x="304.743" y="185.873"/><use xlink:href="#q" x="307.729" y="185.873"/><use xlink:href="#t" x="313.207" y="185.873"/><path fill="none" stroke="#000" stroke-miterlimit="10" stroke-width=".398" d="M248.672 194.434h10.781M248.871 204.176v-9.738M259.254 204.176v-9.738M248.672 204.176h10.781"/><use xlink:href="#F" x="263.937" y="202.712"/><use xlink:href="#o" x="270.321" y="202.712"/><use xlink:href="#G" x="274.804" y="202.712"/><use xlink:href="#w" x="280.283" y="202.712"/><use xlink:href="#m" x="283.771" y="202.712"/><use xlink:href="#s" x="288.756" y="202.712"/><use xlink:href="#v" x="294.234" y="202.712"/><use xlink:href="#l" x="299.713" y="202.712"/><use xlink:href="#p" x="303.694" y="202.712"/><use xlink:href="#H" x="306.68" y="202.712"/><use xlink:href="#p" x="312.158" y="202.712"/><use xlink:href="#n" x="315.144" y="202.712"/><use xlink:href="#p" x="318.13" y="202.712"/><use xlink:href="#k" x="321.116" y="202.712"/><use xlink:href="#y" x="324.101" y="202.712"/><use xlink:href="#j" x="331.319" y="202.712"/><use xlink:href="#q" x="335.803" y="202.712"/><use xlink:href="#s" x="341.281" y="202.712"/><use xlink:href="#w" x="263.937" y="214.766"/><use xlink:href="#o" x="267.425" y="214.766"/><use xlink:href="#w" x="271.908" y="214.766"/><use xlink:href="#v" x="275.62" y="214.766"/><use xlink:href="#q" x="281.099" y="214.766"/><use xlink:href="#l" x="288.81" y="214.766"/><use xlink:href="#E" x="292.791" y="214.766"/><use xlink:href="#o" x="298.269" y="214.766"/><use xlink:href="#l" x="302.752" y="214.766"/><use xlink:href="#I" x="306.734" y="214.766"/><use xlink:href="#z" x="312.346" y="214.766"/><path fill="none" stroke="#000" stroke-miterlimit="10" stroke-width=".398" d="M248.672 221.098h10.781M248.871 230.836v-9.738M259.254 230.836v-9.738M248.672 230.836h10.781"/><use xlink:href="#i" x="263.937" y="229.372"/><use xlink:href="#j" x="271.406" y="229.372"/><use xlink:href="#k" x="275.889" y="229.372"/><use xlink:href="#j" x="278.956" y="229.372"/><use xlink:href="#n" x="285.68" y="229.372"/><use xlink:href="#j" x="288.666" y="229.372"/><use xlink:href="#H" x="293.149" y="229.372"/><use xlink:href="#o" x="298.628" y="229.372"/><use xlink:href="#n" x="303.111" y="229.372"/><use xlink:href="#p" x="306.097" y="229.372"/><use xlink:href="#q" x="309.083" y="229.372"/><use xlink:href="#t" x="314.561" y="229.372"/><use xlink:href="#j" x="321.788" y="229.372"/><use xlink:href="#q" x="326.271" y="229.372"/><use xlink:href="#s" x="331.75" y="229.372"/><use xlink:href="#j" x="263.937" y="241.427"/><use xlink:href="#q" x="268.42" y="241.427"/><use xlink:href="#q" x="273.899" y="241.427"/><use xlink:href="#m" x="279.377" y="241.427"/><use xlink:href="#k" x="284.362" y="241.427"/><use xlink:href="#j" x="287.429" y="241.427"/><use xlink:href="#k" x="291.912" y="241.427"/><use xlink:href="#p" x="294.898" y="241.427"/><use xlink:href="#m" x="297.884" y="241.427"/><use xlink:href="#q" x="302.869" y="241.427"/><use xlink:href="#j" x="310.589" y="241.427"/><use xlink:href="#z" x="315.072" y="241.427"/><use xlink:href="#z" x="319.053" y="241.427"/><use xlink:href="#p" x="323.034" y="241.427"/><use xlink:href="#z" x="326.02" y="241.427"/><use xlink:href="#k" x="330.001" y="241.427"/><use xlink:href="#j" x="333.077" y="241.427"/><use xlink:href="#q" x="337.56" y="241.427"/><use xlink:href="#l" x="343.038" y="241.427"/><use xlink:href="#o" x="347.019" y="241.427"/><path fill="none" stroke="#000" stroke-miterlimit="10" stroke-width=".398" d="M371.543 148.508h10.781M371.742 158.242v-9.734M382.129 158.242v-9.734M371.543 158.242h10.781"/><use xlink:href="#J" x="386.809" y="156.782"/><use xlink:href="#y" x="392.287" y="156.782"/><use xlink:href="#q" x="397.273" y="156.782"/><use xlink:href="#k" x="402.751" y="156.782"/><use xlink:href="#E" x="405.916" y="156.782"/><use xlink:href="#o" x="411.395" y="156.782"/><use xlink:href="#k" x="415.878" y="156.782"/><use xlink:href="#p" x="418.864" y="156.782"/><use xlink:href="#l" x="421.85" y="156.782"/><use xlink:href="#s" x="428.072" y="156.782"/><use xlink:href="#j" x="433.551" y="156.782"/><use xlink:href="#k" x="438.034" y="156.782"/><use xlink:href="#j" x="441.109" y="156.782"/><use xlink:href="#t" x="386.809" y="168.837"/><use xlink:href="#o" x="391.66" y="168.837"/><use xlink:href="#q" x="396.143" y="168.837"/><use xlink:href="#o" x="401.621" y="168.837"/><use xlink:href="#w" x="406.105" y="168.837"/><use xlink:href="#j" x="409.593" y="168.837"/><use xlink:href="#k" x="414.076" y="168.837"/><use xlink:href="#p" x="417.062" y="168.837"/><use xlink:href="#m" x="420.047" y="168.837"/><use xlink:href="#q" x="425.033" y="168.837"/><path fill="none" stroke="#000" stroke-miterlimit="10" stroke-width=".398" d="M371.543 177.398h10.781M371.742 187.137v-9.739M382.129 187.137v-9.739M371.543 187.137h10.781"/><use xlink:href="#i" x="386.809" y="185.675"/><use xlink:href="#o" x="394.278" y="185.675"/><use xlink:href="#K" x="398.761" y="185.675"/><use xlink:href="#p" x="401.747" y="185.675"/><use xlink:href="#s" x="404.733" y="185.675"/><use xlink:href="#o" x="410.211" y="185.675"/><use xlink:href="#q" x="414.694" y="185.675"/><use xlink:href="#k" x="420.173" y="185.675"/><use xlink:href="#p" x="423.159" y="185.675"/><use xlink:href="#L" x="426.145" y="185.675"/><use xlink:href="#l" x="431.623" y="185.675"/><use xlink:href="#j" x="435.604" y="185.675"/><use xlink:href="#k" x="440.087" y="185.675"/><use xlink:href="#p" x="443.073" y="185.675"/><use xlink:href="#m" x="446.059" y="185.675"/><use xlink:href="#q" x="451.044" y="185.675"/><use xlink:href="#j" x="458.764" y="185.675"/><use xlink:href="#q" x="463.247" y="185.675"/><use xlink:href="#s" x="468.726" y="185.675"/><use xlink:href="#j" x="386.809" y="197.73"/><use xlink:href="#q" x="391.292" y="197.73"/><use xlink:href="#m" x="396.771" y="197.73"/><use xlink:href="#q" x="401.756" y="197.73"/><use xlink:href="#y" x="407.01" y="197.73"/><use xlink:href="#M" x="411.996" y="197.73"/><use xlink:href="#p" x="419.967" y="197.73"/><use xlink:href="#x" x="422.952" y="197.73"/><use xlink:href="#j" x="427.436" y="197.73"/><use xlink:href="#k" x="431.919" y="197.73"/><use xlink:href="#p" x="434.905" y="197.73"/><use xlink:href="#m" x="437.89" y="197.73"/><use xlink:href="#q" x="442.876" y="197.73"/><use xlink:href="#z" x="450.596" y="197.73"/><use xlink:href="#v" x="454.577" y="197.73"/><use xlink:href="#G" x="460.055" y="197.73"/><use xlink:href="#G" x="465.534" y="197.73"/><use xlink:href="#m" x="471.012" y="197.73"/><use xlink:href="#w" x="475.998" y="197.73"/><use xlink:href="#k" x="479.71" y="197.73"/><use xlink:href="#u" x="373.137" y="214.569"/><path fill="none" stroke="#000" stroke-miterlimit="10" stroke-width=".398" d="M371.543 206.293h10.781M371.742 216.031v-9.738M382.129 216.031v-9.738M371.543 216.031h10.781"/><use xlink:href="#N" x="386.809" y="214.569"/><use xlink:href="#v" x="393.561" y="214.569"/><use xlink:href="#s" x="399.039" y="214.569"/><use xlink:href="#p" x="404.518" y="214.569"/><use xlink:href="#m" x="407.503" y="214.569"/><use xlink:href="#K" x="412.489" y="214.569"/><use xlink:href="#k" x="415.475" y="214.569"/><use xlink:href="#m" x="418.46" y="214.569"/><use xlink:href="#K" x="423.446" y="214.569"/><use xlink:href="#k" x="426.431" y="214.569"/><use xlink:href="#o" x="429.417" y="214.569"/><use xlink:href="#O" x="433.9" y="214.569"/><use xlink:href="#k" x="438.384" y="214.569"/><use xlink:href="#k" x="386.809" y="226.623"/><use xlink:href="#w" x="389.795" y="226.623"/><use xlink:href="#j" x="393.283" y="226.623"/><use xlink:href="#q" x="397.766" y="226.623"/><use xlink:href="#z" x="403.244" y="226.623"/><use xlink:href="#l" x="407.225" y="226.623"/><use xlink:href="#w" x="411.207" y="226.623"/><use xlink:href="#p" x="414.874" y="226.623"/><use xlink:href="#G" x="417.86" y="226.623"/><use xlink:href="#k" x="423.338" y="226.623"/><use xlink:href="#p" x="426.324" y="226.623"/><use xlink:href="#m" x="429.31" y="226.623"/><use xlink:href="#q" x="434.295" y="226.623"/><use xlink:href="#j" x="442.015" y="226.623"/><use xlink:href="#q" x="446.498" y="226.623"/><use xlink:href="#s" x="451.977" y="226.623"/><use xlink:href="#s" x="386.809" y="238.678"/><use xlink:href="#p" x="392.287" y="238.678"/><use xlink:href="#j" x="395.273" y="238.678"/><use xlink:href="#w" x="399.756" y="238.678"/><use xlink:href="#p" x="403.424" y="238.678"/><use xlink:href="#x" x="406.41" y="238.678"/><use xlink:href="#j" x="410.893" y="238.678"/><use xlink:href="#k" x="415.376" y="238.678"/><use xlink:href="#p" x="418.362" y="238.678"/><use xlink:href="#m" x="421.347" y="238.678"/><use xlink:href="#q" x="426.333" y="238.678"/><use xlink:href="#P" x="125.798" y="264.772"/><use xlink:href="#Q" x="134.285" y="264.772"/><use xlink:href="#R" x="137.918" y="264.772"/><use xlink:href="#S" x="142.762" y="264.772"/><use xlink:href="#b" x="149.427" y="264.772"/><use xlink:href="#T" x="154.882" y="264.772"/><use xlink:href="#R" x="158.514" y="264.772"/><use xlink:href="#b" x="166.085" y="264.772"/><use xlink:href="#e" x="171.54" y="264.772"/><use xlink:href="#U" x="178.205" y="264.772"/><use xlink:href="#d" x="187.598" y="264.772"/><use xlink:href="#S" x="198.507" y="264.772"/><use xlink:href="#T" x="205.173" y="264.772"/><use xlink:href="#c" x="208.805" y="264.772"/><use xlink:href="#Q" x="212.438" y="264.772"/><use xlink:href="#h" x="216.071" y="264.772"/><use xlink:href="#g" x="225.769" y="264.772"/><use xlink:href="#U" x="231.223" y="264.772"/><use xlink:href="#Q" x="237.889" y="264.772"/><use xlink:href="#b" x="241.522" y="264.772"/><path fill="none" stroke="#000" stroke-miterlimit="10" stroke-width=".398" d="M249.703 264.57h234.75M125.797 272.535h10.785M125.996 282.273v-9.738M136.383 282.273v-9.738M125.797 282.273h10.785"/><use xlink:href="#J" x="141.064" y="280.811"/><use xlink:href="#y" x="146.542" y="280.811"/><use xlink:href="#q" x="151.528" y="280.811"/><use xlink:href="#k" x="157.006" y="280.811"/><use xlink:href="#E" x="160.171" y="280.811"/><use xlink:href="#o" x="165.65" y="280.811"/><use xlink:href="#k" x="170.133" y="280.811"/><use xlink:href="#p" x="173.119" y="280.811"/><use xlink:href="#l" x="176.105" y="280.811"/><use xlink:href="#N" x="182.327" y="280.811"/><use xlink:href="#z" x="189.303" y="280.811"/><use xlink:href="#z" x="193.284" y="280.811"/><use xlink:href="#o" x="197.265" y="280.811"/><use xlink:href="#k" x="201.748" y="280.811"/><use xlink:href="#V" x="141.064" y="292.866"/><use xlink:href="#o" x="148.533" y="292.866"/><use xlink:href="#q" x="153.016" y="292.866"/><use xlink:href="#o" x="158.495" y="292.866"/><use xlink:href="#w" x="162.978" y="292.866"/><use xlink:href="#j" x="166.466" y="292.866"/><use xlink:href="#k" x="170.949" y="292.866"/><use xlink:href="#p" x="173.935" y="292.866"/><use xlink:href="#m" x="176.921" y="292.866"/><use xlink:href="#q" x="181.906" y="292.866"/><use xlink:href="#u" x="250.265" y="280.811"/><path fill="none" stroke="#000" stroke-miterlimit="10" stroke-width=".398" d="M248.672 272.535h10.781M248.871 282.273v-9.738M259.254 282.273v-9.738M248.672 282.273h10.781"/><use xlink:href="#W" x="263.937" y="280.811"/><use xlink:href="#M" x="267.425" y="280.811"/><use xlink:href="#j" x="275.396" y="280.811"/><use xlink:href="#t" x="279.879" y="280.811"/><use xlink:href="#o" x="284.73" y="280.811"/><use xlink:href="#X" x="291.446" y="280.811"/><use xlink:href="#q" x="296.924" y="280.811"/><use xlink:href="#E" x="302.403" y="280.811"/><use xlink:href="#j" x="307.881" y="280.811"/><use xlink:href="#q" x="312.364" y="280.811"/><use xlink:href="#l" x="317.843" y="280.811"/><use xlink:href="#o" x="321.824" y="280.811"/><use xlink:href="#M" x="326.307" y="280.811"/><use xlink:href="#o" x="334.278" y="280.811"/><use xlink:href="#q" x="338.761" y="280.811"/><use xlink:href="#k" x="344.24" y="280.811"/><use xlink:href="#j" x="263.937" y="292.866"/><use xlink:href="#q" x="268.42" y="292.866"/><use xlink:href="#s" x="273.899" y="292.866"/><use xlink:href="#X" x="281.61" y="292.866"/><use xlink:href="#s" x="287.088" y="292.866"/><use xlink:href="#p" x="292.567" y="292.866"/><use xlink:href="#k" x="295.552" y="292.866"/><use xlink:href="#p" x="298.538" y="292.866"/><use xlink:href="#q" x="301.524" y="292.866"/><use xlink:href="#t" x="307.003" y="292.866"/><path fill="none" stroke="#000" stroke-miterlimit="10" stroke-width=".398" d="M371.543 272.535h10.781M371.742 282.273v-9.738M382.129 282.273v-9.738M371.543 282.273h10.781"/><use xlink:href="#i" x="386.809" y="280.811"/><use xlink:href="#p" x="394.278" y="280.811"/><use xlink:href="#j" x="397.264" y="280.811"/><use xlink:href="#t" x="401.747" y="280.811"/><use xlink:href="#w" x="406.867" y="280.811"/><use xlink:href="#j" x="410.355" y="280.811"/><use xlink:href="#M" x="414.838" y="280.811"/><use xlink:href="#M" x="422.809" y="280.811"/><use xlink:href="#j" x="430.78" y="280.811"/><use xlink:href="#k" x="435.263" y="280.811"/><use xlink:href="#p" x="438.249" y="280.811"/><use xlink:href="#l" x="441.235" y="280.811"/><use xlink:href="#j" x="447.458" y="280.811"/><use xlink:href="#q" x="451.941" y="280.811"/><use xlink:href="#s" x="457.419" y="280.811"/><use xlink:href="#J" x="386.809" y="292.866"/><use xlink:href="#l" x="392.287" y="292.866"/><use xlink:href="#E" x="396.269" y="292.866"/><use xlink:href="#o" x="401.747" y="292.866"/><use xlink:href="#M" x="406.23" y="292.866"/><use xlink:href="#j" x="414.201" y="292.866"/><use xlink:href="#k" x="418.684" y="292.866"/><use xlink:href="#p" x="421.67" y="292.866"/><use xlink:href="#l" x="424.656" y="292.866"/><use xlink:href="#i" x="430.879" y="292.866"/><use xlink:href="#o" x="438.348" y="292.866"/><use xlink:href="#z" x="442.831" y="292.866"/><use xlink:href="#p" x="446.812" y="292.866"/><use xlink:href="#t" x="449.798" y="292.866"/><use xlink:href="#q" x="454.783" y="292.866"/><use xlink:href="#Y" x="125.798" y="318.523"/><use xlink:href="#Z" x="136.325" y="318.523"/><use xlink:href="#Q" x="140.787" y="318.523"/><use xlink:href="#c" x="144.42" y="318.523"/><use xlink:href="#Q" x="148.053" y="318.523"/><use xlink:href="#e" x="151.685" y="318.523"/><use xlink:href="#f" x="158.351" y="318.523"/><use xlink:href="#b" x="167.143" y="318.523"/><use xlink:href="#e" x="172.598" y="318.523"/><use xlink:href="#U" x="179.263" y="318.523"/><use xlink:href="#aa" x="188.656" y="318.523"/><use xlink:href="#U" x="195.322" y="318.523"/><use xlink:href="#Q" x="201.987" y="318.523"/><use xlink:href="#c" x="205.62" y="318.523"/><use xlink:href="#Q" x="209.253" y="318.523"/><use xlink:href="#e" x="212.885" y="318.523"/><use xlink:href="#f" x="219.551" y="318.523"/><path fill="none" stroke="#000" stroke-miterlimit="10" stroke-width=".398" d="M228.344 318.324h256.11M125.797 326.285h10.785M125.996 336.023v-9.738M136.383 336.023v-9.738M125.797 336.023h10.785"/><use xlink:href="#i" x="141.064" y="334.563"/><use xlink:href="#w" x="148.533" y="334.563"/><use xlink:href="#j" x="152.021" y="334.563"/><use xlink:href="#ab" x="156.504" y="334.563"/><use xlink:href="#k" x="160.127" y="334.563"/><use xlink:href="#p" x="163.112" y="334.563"/><use xlink:href="#q" x="166.098" y="334.563"/><use xlink:href="#t" x="171.577" y="334.563"/><use xlink:href="#ac" x="178.803" y="334.563"/><use xlink:href="#o" x="183.977" y="334.563"/><use xlink:href="#O" x="188.46" y="334.563"/><use xlink:href="#k" x="192.943" y="334.563"/><path fill="none" stroke="#000" stroke-miterlimit="10" stroke-width=".398" d="M125.797 343.324h10.785M125.996 353.063v-9.739M136.383 353.063v-9.739M125.797 353.063h10.785"/><use xlink:href="#C" x="141.064" y="351.599"/><use xlink:href="#m" x="146.229" y="351.599"/><use xlink:href="#n" x="151.214" y="351.599"/><use xlink:href="#p" x="154.2" y="351.599"/><use xlink:href="#z" x="157.186" y="351.599"/><use xlink:href="#E" x="161.167" y="351.599"/><use xlink:href="#p" x="166.645" y="351.599"/><use xlink:href="#q" x="169.631" y="351.599"/><use xlink:href="#t" x="175.109" y="351.599"/><use xlink:href="#j" x="182.336" y="351.599"/><use xlink:href="#q" x="186.819" y="351.599"/><use xlink:href="#s" x="192.298" y="351.599"/><use xlink:href="#X" x="200.018" y="351.599"/><use xlink:href="#s" x="205.496" y="351.599"/><use xlink:href="#p" x="210.975" y="351.599"/><use xlink:href="#k" x="213.961" y="351.599"/><use xlink:href="#p" x="216.946" y="351.599"/><use xlink:href="#q" x="219.932" y="351.599"/><use xlink:href="#t" x="225.411" y="351.599"/><path fill="none" stroke="#000" stroke-miterlimit="10" stroke-width=".398" d="M125.797 360.36h10.785M125.996 370.098v-9.739M136.383 370.098v-9.739M125.797 370.098h10.785"/><use xlink:href="#ac" x="141.064" y="368.635"/><use xlink:href="#p" x="146.955" y="368.635"/><use xlink:href="#k" x="149.941" y="368.635"/><use xlink:href="#n" x="152.927" y="368.635"/><use xlink:href="#o" x="155.912" y="368.635"/><use xlink:href="#V" x="162.637" y="368.635"/><use xlink:href="#o" x="170.106" y="368.635"/><use xlink:href="#q" x="174.589" y="368.635"/><use xlink:href="#o" x="180.068" y="368.635"/><use xlink:href="#w" x="184.551" y="368.635"/><use xlink:href="#j" x="188.039" y="368.635"/><use xlink:href="#k" x="192.522" y="368.635"/><use xlink:href="#p" x="195.508" y="368.635"/><use xlink:href="#m" x="198.494" y="368.635"/><use xlink:href="#q" x="203.479" y="368.635"/><path fill="none" stroke="#000" stroke-miterlimit="10" stroke-width=".398" d="M125.797 377.395h10.785M125.996 387.133v-9.738M136.383 387.133v-9.738M125.797 387.133h10.785"/><use xlink:href="#N" x="141.064" y="385.672"/><use xlink:href="#H" x="148.04" y="385.672"/><use xlink:href="#z" x="153.518" y="385.672"/><use xlink:href="#k" x="157.499" y="385.672"/><use xlink:href="#w" x="160.485" y="385.672"/><use xlink:href="#j" x="163.973" y="385.672"/><use xlink:href="#l" x="168.456" y="385.672"/><use xlink:href="#k" x="172.437" y="385.672"/><use xlink:href="#j" x="177.665" y="385.672"/><use xlink:href="#q" x="182.148" y="385.672"/><use xlink:href="#s" x="187.626" y="385.672"/><use xlink:href="#X" x="195.346" y="385.672"/><use xlink:href="#O" x="200.825" y="385.672"/><use xlink:href="#o" x="205.174" y="385.672"/><use xlink:href="#l" x="209.657" y="385.672"/><use xlink:href="#v" x="213.638" y="385.672"/><use xlink:href="#k" x="219.116" y="385.672"/><use xlink:href="#p" x="222.102" y="385.672"/><use xlink:href="#B" x="225.088" y="385.672"/><use xlink:href="#o" x="229.849" y="385.672"/><use xlink:href="#J" x="141.064" y="397.726"/><use xlink:href="#v" x="146.542" y="397.726"/><use xlink:href="#M" x="152.021" y="397.726"/><use xlink:href="#M" x="159.992" y="397.726"/><use xlink:href="#j" x="167.963" y="397.726"/><use xlink:href="#w" x="172.446" y="397.726"/><use xlink:href="#y" x="176.248" y="397.726"/><use xlink:href="#V" x="183.475" y="397.726"/><use xlink:href="#o" x="190.944" y="397.726"/><use xlink:href="#q" x="195.427" y="397.726"/><use xlink:href="#o" x="200.906" y="397.726"/><use xlink:href="#w" x="205.389" y="397.726"/><use xlink:href="#j" x="208.877" y="397.726"/><use xlink:href="#k" x="213.36" y="397.726"/><use xlink:href="#p" x="216.346" y="397.726"/><use xlink:href="#m" x="219.332" y="397.726"/><use xlink:href="#q" x="224.317" y="397.726"/><path fill="none" stroke="#000" stroke-miterlimit="10" stroke-width=".398" d="M248.672 326.285h10.781M248.871 336.023v-9.738M259.254 336.023v-9.738M248.672 336.023h10.781"/><use xlink:href="#ad" x="263.937" y="334.563"/><use xlink:href="#m" x="268.788" y="334.563"/><use xlink:href="#w" x="273.773" y="334.563"/><use xlink:href="#M" x="277.476" y="334.563"/><use xlink:href="#v" x="285.447" y="334.563"/><use xlink:href="#n" x="290.926" y="334.563"/><use xlink:href="#j" x="293.912" y="334.563"/><use xlink:href="#k" x="298.395" y="334.563"/><use xlink:href="#p" x="301.381" y="334.563"/><use xlink:href="#m" x="304.366" y="334.563"/><use xlink:href="#q" x="309.352" y="334.563"/><use xlink:href="#m" x="317.072" y="334.563"/><use xlink:href="#ab" x="322.057" y="334.563"/><use xlink:href="#l" x="263.937" y="346.618"/><use xlink:href="#m" x="267.918" y="346.618"/><use xlink:href="#q" x="272.903" y="346.618"/><use xlink:href="#l" x="278.382" y="346.618"/><use xlink:href="#n" x="282.363" y="346.618"/><use xlink:href="#v" x="285.349" y="346.618"/><use xlink:href="#z" x="290.827" y="346.618"/><use xlink:href="#p" x="294.808" y="346.618"/><use xlink:href="#m" x="297.794" y="346.618"/><use xlink:href="#q" x="302.779" y="346.618"/><use xlink:href="#z" x="308.258" y="346.618"/><path fill="none" stroke="#000" stroke-miterlimit="10" stroke-width=".398" d="M248.672 352.945h10.781M248.871 362.688v-9.739M259.254 362.688v-9.739M248.672 362.688h10.781"/><use xlink:href="#D" x="263.937" y="361.224"/><use xlink:href="#p" x="270.411" y="361.224"/><use xlink:href="#k" x="273.397" y="361.224"/><use xlink:href="#j" x="276.463" y="361.224"/><use xlink:href="#k" x="280.946" y="361.224"/><use xlink:href="#p" x="283.932" y="361.224"/><use xlink:href="#m" x="286.918" y="361.224"/><use xlink:href="#q" x="291.903" y="361.224"/><use xlink:href="#ab" x="299.623" y="361.224"/><use xlink:href="#m" x="303.03" y="361.224"/><use xlink:href="#w" x="308.016" y="361.224"/><use xlink:href="#M" x="311.719" y="361.224"/><use xlink:href="#j" x="319.69" y="361.224"/><use xlink:href="#k" x="324.173" y="361.224"/><use xlink:href="#k" x="327.159" y="361.224"/><use xlink:href="#p" x="330.145" y="361.224"/><use xlink:href="#q" x="333.131" y="361.224"/><use xlink:href="#t" x="338.609" y="361.224"/><use xlink:href="#j" x="345.836" y="361.224"/><use xlink:href="#q" x="350.319" y="361.224"/><use xlink:href="#s" x="355.798" y="361.224"/><use xlink:href="#H" x="263.937" y="373.278"/><use xlink:href="#p" x="269.415" y="373.278"/><use xlink:href="#H" x="272.401" y="373.278"/><use xlink:href="#n" x="277.88" y="373.278"/><use xlink:href="#p" x="280.866" y="373.278"/><use xlink:href="#m" x="283.851" y="373.278"/><use xlink:href="#t" x="288.837" y="373.278"/><use xlink:href="#w" x="293.947" y="373.278"/><use xlink:href="#j" x="297.435" y="373.278"/><use xlink:href="#G" x="301.919" y="373.278"/><use xlink:href="#E" x="307.397" y="373.278"/><use xlink:href="#y" x="312.66" y="373.278"/><use xlink:href="#M" x="263.937" y="385.333"/><use xlink:href="#j" x="271.908" y="385.333"/><use xlink:href="#q" x="276.391" y="385.333"/><use xlink:href="#j" x="281.87" y="385.333"/><use xlink:href="#t" x="286.353" y="385.333"/><use xlink:href="#o" x="291.204" y="385.333"/><use xlink:href="#M" x="295.687" y="385.333"/><use xlink:href="#o" x="303.658" y="385.333"/><use xlink:href="#q" x="308.141" y="385.333"/><use xlink:href="#k" x="313.62" y="385.333"/><path fill="none" stroke="#000" stroke-miterlimit="10" stroke-width=".398" d="M371.543 326.285h10.781M371.742 336.023v-9.738M382.129 336.023v-9.738M371.543 336.023h10.781"/><use xlink:href="#ac" x="386.809" y="334.563"/><use xlink:href="#m" x="391.983" y="334.563"/><use xlink:href="#q" x="396.968" y="334.563"/><use xlink:href="#o" x="402.446" y="334.563"/><use xlink:href="#N" x="409.171" y="334.563"/><use xlink:href="#s" x="416.012" y="334.563"/><use xlink:href="#ae" x="421.491" y="334.563"/><use xlink:href="#v" x="424.477" y="334.563"/><use xlink:href="#z" x="429.955" y="334.563"/><use xlink:href="#k" x="433.936" y="334.563"/><use xlink:href="#M" x="436.922" y="334.563"/><use xlink:href="#o" x="444.893" y="334.563"/><use xlink:href="#q" x="449.376" y="334.563"/><use xlink:href="#k" x="454.855" y="334.563"/><path fill="none" stroke="#000" stroke-miterlimit="10" stroke-width=".398" d="M371.543 343.324h10.781M371.742 353.063v-9.739M382.129 353.063v-9.739M371.543 353.063h10.781"/><use xlink:href="#ac" x="386.809" y="351.599"/><use xlink:href="#w" x="392.252" y="351.599"/><use xlink:href="#j" x="395.74" y="351.599"/><use xlink:href="#q" x="400.223" y="351.599"/><use xlink:href="#z" x="405.701" y="351.599"/><use xlink:href="#n" x="409.682" y="351.599"/><use xlink:href="#j" x="412.668" y="351.599"/><use xlink:href="#k" x="417.151" y="351.599"/><use xlink:href="#p" x="420.137" y="351.599"/><use xlink:href="#m" x="423.123" y="351.599"/><use xlink:href="#q" x="428.108" y="351.599"/><use xlink:href="#u" x="373.137" y="368.635"/><path fill="none" stroke="#000" stroke-miterlimit="10" stroke-width=".398" d="M371.543 360.36h10.781M371.742 370.098v-9.739M382.129 370.098v-9.739M371.543 370.098h10.781"/><use xlink:href="#C" x="386.809" y="368.635"/><use xlink:href="#w" x="392.287" y="368.635"/><use xlink:href="#o" x="395.775" y="368.635"/><use xlink:href="#z" x="400.259" y="368.635"/><use xlink:href="#z" x="404.24" y="368.635"/><use xlink:href="#w" x="410.462" y="368.635"/><use xlink:href="#o" x="413.95" y="368.635"/><use xlink:href="#n" x="418.433" y="368.635"/><use xlink:href="#o" x="421.419" y="368.635"/><use xlink:href="#j" x="425.902" y="368.635"/><use xlink:href="#z" x="430.386" y="368.635"/><use xlink:href="#o" x="434.367" y="368.635"/><use xlink:href="#z" x="438.85" y="368.635"/><use xlink:href="#j" x="445.073" y="368.635"/><use xlink:href="#q" x="449.556" y="368.635"/><use xlink:href="#s" x="455.034" y="368.635"/><use xlink:href="#m" x="386.809" y="380.69"/><use xlink:href="#v" x="391.794" y="380.69"/><use xlink:href="#k" x="397.273" y="380.69"/><use xlink:href="#w" x="400.259" y="380.69"/><use xlink:href="#o" x="403.746" y="380.69"/><use xlink:href="#j" x="408.23" y="380.69"/><use xlink:href="#l" x="412.713" y="380.69"/><use xlink:href="#E" x="416.694" y="380.69"/><use xlink:href="#M" x="424.414" y="380.69"/><use xlink:href="#j" x="432.385" y="380.69"/><use xlink:href="#k" x="436.868" y="380.69"/><use xlink:href="#o" x="439.854" y="380.69"/><use xlink:href="#w" x="444.337" y="380.69"/><use xlink:href="#p" x="448.005" y="380.69"/><use xlink:href="#j" x="450.99" y="380.69"/><use xlink:href="#n" x="455.474" y="380.69"/><use xlink:href="#z" x="458.459" y="380.69"/><use xlink:href="#aa" x="125.798" y="422.627"/><use xlink:href="#c" x="132.463" y="422.627"/><use xlink:href="#af" x="136.314" y="422.627"/><use xlink:href="#Q" x="142.98" y="422.627"/><use xlink:href="#ag" x="146.613" y="422.627"/><use xlink:href="#R" x="151.456" y="422.627"/><use xlink:href="#ah" x="159.027" y="422.627"/><use xlink:href="#g" x="166.794" y="422.627"/><use xlink:href="#ai" x="172.249" y="422.627"/><use xlink:href="#Q" x="178.314" y="422.627"/><use xlink:href="#g" x="181.947" y="422.627"/><use xlink:href="#aj" x="187.402" y="422.627"/><path fill="none" stroke="#000" stroke-miterlimit="10" stroke-width=".398" d="M199.215 422.43h285.238"/><use xlink:href="#u" x="127.392" y="438.667"/><path fill="none" stroke="#000" stroke-miterlimit="10" stroke-width=".398" d="M125.797 430.39h10.785M125.996 440.129v-9.738M136.383 440.129v-9.738M125.797 440.129h10.785"/><use xlink:href="#ak" x="141.064" y="438.667"/><use xlink:href="#p" x="147.045" y="438.667"/><use xlink:href="#j" x="150.03" y="438.667"/><use xlink:href="#z" x="154.514" y="438.667"/><use xlink:href="#j" x="160.736" y="438.667"/><use xlink:href="#q" x="165.219" y="438.667"/><use xlink:href="#j" x="170.698" y="438.667"/><use xlink:href="#n" x="175.181" y="438.667"/><use xlink:href="#y" x="177.988" y="438.667"/><use xlink:href="#z" x="182.973" y="438.667"/><use xlink:href="#p" x="186.954" y="438.667"/><use xlink:href="#z" x="189.94" y="438.667"/><use xlink:href="#j" x="196.162" y="438.667"/><use xlink:href="#q" x="200.646" y="438.667"/><use xlink:href="#s" x="206.124" y="438.667"/><use xlink:href="#s" x="141.064" y="450.722"/><use xlink:href="#p" x="146.542" y="450.722"/><use xlink:href="#z" x="149.528" y="450.722"/><use xlink:href="#l" x="153.509" y="450.722"/><use xlink:href="#w" x="157.49" y="450.722"/><use xlink:href="#p" x="161.158" y="450.722"/><use xlink:href="#M" x="164.143" y="450.722"/><use xlink:href="#p" x="172.115" y="450.722"/><use xlink:href="#q" x="175.1" y="450.722"/><use xlink:href="#j" x="180.579" y="450.722"/><use xlink:href="#k" x="185.062" y="450.722"/><use xlink:href="#p" x="188.048" y="450.722"/><use xlink:href="#m" x="191.034" y="450.722"/><use xlink:href="#q" x="196.019" y="450.722"/><use xlink:href="#j" x="141.064" y="462.777"/><use xlink:href="#z" x="145.547" y="462.777"/><use xlink:href="#z" x="149.528" y="462.777"/><use xlink:href="#o" x="153.509" y="462.777"/><use xlink:href="#z" x="157.993" y="462.777"/><use xlink:href="#z" x="161.974" y="462.777"/><use xlink:href="#M" x="165.955" y="462.777"/><use xlink:href="#o" x="173.926" y="462.777"/><use xlink:href="#q" x="178.409" y="462.777"/><use xlink:href="#k" x="183.887" y="462.777"/><path fill="none" stroke="#000" stroke-miterlimit="10" stroke-width=".398" d="M248.672 430.39h10.781M248.871 440.129v-9.738M259.254 440.129v-9.738M248.672 440.129h10.781"/><use xlink:href="#X" x="263.937" y="438.667"/><use xlink:href="#k" x="269.415" y="438.667"/><use xlink:href="#E" x="272.572" y="438.667"/><use xlink:href="#p" x="278.05" y="438.667"/><use xlink:href="#l" x="281.036" y="438.667"/><use xlink:href="#j" x="285.017" y="438.667"/><use xlink:href="#n" x="289.5" y="438.667"/><use xlink:href="#w" x="294.728" y="438.667"/><use xlink:href="#p" x="298.395" y="438.667"/><use xlink:href="#z" x="301.381" y="438.667"/><use xlink:href="#I" x="305.362" y="438.667"/><use xlink:href="#j" x="313.082" y="438.667"/><use xlink:href="#q" x="317.565" y="438.667"/><use xlink:href="#j" x="323.043" y="438.667"/><use xlink:href="#n" x="327.527" y="438.667"/><use xlink:href="#y" x="330.342" y="438.667"/><use xlink:href="#z" x="335.327" y="438.667"/><use xlink:href="#p" x="339.308" y="438.667"/><use xlink:href="#z" x="342.294" y="438.667"/><path fill="none" stroke="#000" stroke-miterlimit="10" stroke-width=".398" d="M248.672 447.426h10.781M248.871 457.164v-9.738M259.254 457.164v-9.738M248.672 457.164h10.781"/><use xlink:href="#al" x="263.937" y="455.703"/><use xlink:href="#m" x="272.903" y="455.703"/><use xlink:href="#q" x="277.889" y="455.703"/><use xlink:href="#p" x="283.367" y="455.703"/><use xlink:href="#k" x="286.353" y="455.703"/><use xlink:href="#m" x="289.339" y="455.703"/><use xlink:href="#w" x="294.324" y="455.703"/><use xlink:href="#p" x="297.982" y="455.703"/><use xlink:href="#q" x="300.968" y="455.703"/><use xlink:href="#t" x="306.447" y="455.703"/><use xlink:href="#l" x="313.674" y="455.703"/><use xlink:href="#m" x="317.655" y="455.703"/><use xlink:href="#M" x="322.64" y="455.703"/><use xlink:href="#G" x="330.396" y="455.703"/><use xlink:href="#n" x="335.874" y="455.703"/><use xlink:href="#p" x="338.86" y="455.703"/><use xlink:href="#j" x="341.846" y="455.703"/><use xlink:href="#q" x="346.329" y="455.703"/><use xlink:href="#l" x="351.808" y="455.703"/><use xlink:href="#o" x="355.789" y="455.703"/><use xlink:href="#am" x="263.937" y="467.758"/><use xlink:href="#p" x="271.406" y="467.758"/><use xlink:href="#k" x="274.392" y="467.758"/><use xlink:href="#E" x="277.548" y="467.758"/><use xlink:href="#o" x="285.268" y="467.758"/><use xlink:href="#k" x="289.751" y="467.758"/><use xlink:href="#E" x="292.916" y="467.758"/><use xlink:href="#p" x="298.395" y="467.758"/><use xlink:href="#l" x="301.381" y="467.758"/><use xlink:href="#j" x="305.362" y="467.758"/><use xlink:href="#n" x="309.845" y="467.758"/><use xlink:href="#z" x="315.072" y="467.758"/><use xlink:href="#k" x="319.053" y="467.758"/><use xlink:href="#j" x="322.129" y="467.758"/><use xlink:href="#q" x="326.612" y="467.758"/><use xlink:href="#s" x="332.09" y="467.758"/><use xlink:href="#j" x="337.569" y="467.758"/><use xlink:href="#w" x="342.052" y="467.758"/><use xlink:href="#s" x="345.54" y="467.758"/><use xlink:href="#z" x="351.018" y="467.758"/><path fill="none" stroke="#000" stroke-miterlimit="10" stroke-width=".398" d="M371.543 430.39h10.781M371.742 440.129v-9.738M382.129 440.129v-9.738M371.543 440.129h10.781"/><use xlink:href="#i" x="386.809" y="438.667"/><use xlink:href="#j" x="394.278" y="438.667"/><use xlink:href="#k" x="398.761" y="438.667"/><use xlink:href="#j" x="401.837" y="438.667"/><use xlink:href="#l" x="408.561" y="438.667"/><use xlink:href="#m" x="412.543" y="438.667"/><use xlink:href="#q" x="417.528" y="438.667"/><use xlink:href="#L" x="423.006" y="438.667"/><use xlink:href="#s" x="428.485" y="438.667"/><use xlink:href="#o" x="433.963" y="438.667"/><use xlink:href="#q" x="438.446" y="438.667"/><use xlink:href="#k" x="443.925" y="438.667"/><use xlink:href="#p" x="446.911" y="438.667"/><use xlink:href="#j" x="449.896" y="438.667"/><use xlink:href="#n" x="454.38" y="438.667"/><use xlink:href="#p" x="457.365" y="438.667"/><use xlink:href="#k" x="460.351" y="438.667"/><use xlink:href="#y" x="463.337" y="438.667"/><use xlink:href="#M" x="386.809" y="450.722"/><use xlink:href="#m" x="394.78" y="450.722"/><use xlink:href="#q" x="399.765" y="450.722"/><use xlink:href="#p" x="405.244" y="450.722"/><use xlink:href="#k" x="408.23" y="450.722"/><use xlink:href="#m" x="411.215" y="450.722"/><use xlink:href="#w" x="416.201" y="450.722"/><use xlink:href="#p" x="419.868" y="450.722"/><use xlink:href="#q" x="422.854" y="450.722"/><use xlink:href="#t" x="428.332" y="450.722"/><use xlink:href="#an" x="125.798" y="490.426"/><use xlink:href="#S" x="134.885" y="490.426"/><use xlink:href="#b" x="141.551" y="490.426"/><use xlink:href="#T" x="147.005" y="490.426"/><use xlink:href="#Q" x="150.638" y="490.426"/><use xlink:href="#c" x="154.271" y="490.426"/><use xlink:href="#ao" x="157.903" y="490.426"/><use xlink:href="#ap" x="166.696" y="490.426"/><use xlink:href="#R" x="175.183" y="490.426"/><use xlink:href="#R" x="180.027" y="490.426"/><use xlink:href="#S" x="184.871" y="490.426"/><use xlink:href="#Z" x="191.536" y="490.426"/><use xlink:href="#b" x="195.78" y="490.426"/><use xlink:href="#e" x="201.234" y="490.426"/><use xlink:href="#ag" x="207.9" y="490.426"/><use xlink:href="#g" x="212.743" y="490.426"/><path fill="none" stroke="#000" stroke-miterlimit="10" stroke-width=".398" d="M220.926 490.227h263.527"/><use xlink:href="#u" x="127.392" y="506.466"/><path fill="none" stroke="#000" stroke-miterlimit="10" stroke-width=".398" d="M125.797 498.191h10.785M125.996 507.93v-9.739M136.383 507.93v-9.739M125.797 507.93h10.785"/><use xlink:href="#J" x="141.064" y="506.466"/><use xlink:href="#p" x="146.542" y="506.466"/><use xlink:href="#M" x="149.528" y="506.466"/><use xlink:href="#v" x="157.499" y="506.466"/><use xlink:href="#n" x="162.978" y="506.466"/><use xlink:href="#j" x="165.964" y="506.466"/><use xlink:href="#k" x="170.447" y="506.466"/><use xlink:href="#o" x="173.433" y="506.466"/><use xlink:href="#s" x="177.916" y="506.466"/><use xlink:href="#C" x="185.636" y="506.466"/><use xlink:href="#o" x="190.801" y="506.466"/><use xlink:href="#o" x="195.284" y="506.466"/><use xlink:href="#w" x="199.767" y="506.466"/><use xlink:href="#F" x="205.496" y="506.466"/><use xlink:href="#o" x="211.88" y="506.466"/><use xlink:href="#B" x="216.364" y="506.466"/><use xlink:href="#p" x="221.349" y="506.466"/><use xlink:href="#o" x="224.335" y="506.466"/><use xlink:href="#am" x="228.818" y="506.466"/><path fill="none" stroke="#000" stroke-miterlimit="10" stroke-width=".398" d="M125.797 515.227h10.785M125.996 524.965v-9.738M136.383 524.965v-9.738M125.797 524.965h10.785"/><use xlink:href="#D" x="141.064" y="523.502"/><use xlink:href="#m" x="147.538" y="523.502"/><use xlink:href="#q" x="152.523" y="523.502"/><use xlink:href="#z" x="158.001" y="523.502"/><use xlink:href="#p" x="161.983" y="523.502"/><use xlink:href="#z" x="164.968" y="523.502"/><use xlink:href="#k" x="168.949" y="523.502"/><use xlink:href="#o" x="171.935" y="523.502"/><use xlink:href="#q" x="176.418" y="523.502"/><use xlink:href="#l" x="181.897" y="523.502"/><use xlink:href="#y" x="185.878" y="523.502"/><use xlink:href="#l" x="193.105" y="523.502"/><use xlink:href="#E" x="197.086" y="523.502"/><use xlink:href="#o" x="202.564" y="523.502"/><use xlink:href="#l" x="207.048" y="523.502"/><use xlink:href="#I" x="211.029" y="523.502"/><use xlink:href="#p" x="216.507" y="523.502"/><use xlink:href="#q" x="219.493" y="523.502"/><use xlink:href="#t" x="224.971" y="523.502"/><use xlink:href="#j" x="141.064" y="535.557"/><use xlink:href="#t" x="145.547" y="535.557"/><use xlink:href="#j" x="150.532" y="535.557"/><use xlink:href="#p" x="155.016" y="535.557"/><use xlink:href="#q" x="158.001" y="535.557"/><use xlink:href="#z" x="163.48" y="535.557"/><use xlink:href="#k" x="167.461" y="535.557"/><use xlink:href="#L" x="172.688" y="535.557"/><use xlink:href="#o" x="178.167" y="535.557"/><use xlink:href="#n" x="182.65" y="535.557"/><use xlink:href="#s" x="185.636" y="535.557"/><use xlink:href="#k" x="193.356" y="535.557"/><use xlink:href="#w" x="196.342" y="535.557"/><use xlink:href="#o" x="199.83" y="535.557"/><use xlink:href="#q" x="204.313" y="535.557"/><use xlink:href="#s" x="209.791" y="535.557"/><use xlink:href="#z" x="215.27" y="535.557"/><path fill="none" stroke="#000" stroke-miterlimit="10" stroke-width=".398" d="M248.672 498.191h10.781M248.871 507.93v-9.739M259.254 507.93v-9.739M248.672 507.93h10.781"/><use xlink:href="#W" x="263.937" y="506.466"/><use xlink:href="#s" x="267.425" y="506.466"/><use xlink:href="#o" x="272.903" y="506.466"/><use xlink:href="#q" x="277.387" y="506.466"/><use xlink:href="#k" x="282.865" y="506.466"/><use xlink:href="#p" x="285.851" y="506.466"/><use xlink:href="#L" x="288.837" y="506.466"/><use xlink:href="#l" x="294.315" y="506.466"/><use xlink:href="#j" x="298.296" y="506.466"/><use xlink:href="#k" x="302.779" y="506.466"/><use xlink:href="#p" x="305.765" y="506.466"/><use xlink:href="#m" x="308.751" y="506.466"/><use xlink:href="#q" x="313.736" y="506.466"/><use xlink:href="#m" x="321.447" y="506.466"/><use xlink:href="#ab" x="326.433" y="506.466"/><use xlink:href="#n" x="263.937" y="518.521"/><use xlink:href="#p" x="266.923" y="518.521"/><use xlink:href="#M" x="269.909" y="518.521"/><use xlink:href="#p" x="277.88" y="518.521"/><use xlink:href="#k" x="280.866" y="518.521"/><use xlink:href="#j" x="283.932" y="518.521"/><use xlink:href="#k" x="288.415" y="518.521"/><use xlink:href="#p" x="291.401" y="518.521"/><use xlink:href="#m" x="294.387" y="518.521"/><use xlink:href="#q" x="299.372" y="518.521"/><use xlink:href="#z" x="304.851" y="518.521"/><use xlink:href="#u" x="373.137" y="506.466"/><path fill="none" stroke="#000" stroke-miterlimit="10" stroke-width=".398" d="M371.543 498.191h10.781M371.742 507.93v-9.739M382.129 507.93v-9.739M371.543 507.93h10.781"/><use xlink:href="#C" x="386.809" y="506.466"/><use xlink:href="#v" x="392.287" y="506.466"/><use xlink:href="#H" x="397.766" y="506.466"/><use xlink:href="#n" x="403.244" y="506.466"/><use xlink:href="#p" x="406.23" y="506.466"/><use xlink:href="#l" x="409.216" y="506.466"/><use xlink:href="#j" x="413.197" y="506.466"/><use xlink:href="#k" x="417.68" y="506.466"/><use xlink:href="#p" x="420.666" y="506.466"/><use xlink:href="#m" x="423.652" y="506.466"/><use xlink:href="#q" x="428.637" y="506.466"/><use xlink:href="#z" x="436.277" y="506.466"/><use xlink:href="#k" x="440.258" y="506.466"/><use xlink:href="#w" x="443.243" y="506.466"/><use xlink:href="#j" x="446.731" y="506.466"/><use xlink:href="#k" x="451.215" y="506.466"/><use xlink:href="#o" x="454.2" y="506.466"/><use xlink:href="#t" x="458.684" y="506.466"/><use xlink:href="#y" x="463.669" y="506.466"/><use xlink:href="#j" x="470.824" y="506.466"/><use xlink:href="#q" x="475.307" y="506.466"/><use xlink:href="#s" x="480.786" y="506.466"/><use xlink:href="#ae" x="386.809" y="518.521"/><use xlink:href="#m" x="389.795" y="518.521"/><use xlink:href="#v" x="394.78" y="518.521"/><use xlink:href="#w" x="400.259" y="518.521"/><use xlink:href="#q" x="403.971" y="518.521"/><use xlink:href="#j" x="409.449" y="518.521"/><use xlink:href="#n" x="413.932" y="518.521"/><use xlink:href="#z" x="419.16" y="518.521"/><use xlink:href="#o" x="423.141" y="518.521"/><use xlink:href="#n" x="427.624" y="518.521"/><use xlink:href="#o" x="430.61" y="518.521"/><use xlink:href="#l" x="435.093" y="518.521"/><use xlink:href="#k" x="439.074" y="518.521"/><use xlink:href="#p" x="442.06" y="518.521"/><use xlink:href="#m" x="445.046" y="518.521"/><use xlink:href="#q" x="450.031" y="518.521"/><path fill="none" stroke="#000" stroke-miterlimit="10" stroke-width=".398" d="M371.543 527.082h10.781M371.742 536.82v-9.738M382.129 536.82v-9.738M371.543 536.82h10.781"/><use xlink:href="#C" x="386.809" y="535.359"/><use xlink:href="#v" x="392.287" y="535.359"/><use xlink:href="#H" x="397.766" y="535.359"/><use xlink:href="#n" x="403.244" y="535.359"/><use xlink:href="#p" x="406.23" y="535.359"/><use xlink:href="#l" x="409.216" y="535.359"/><use xlink:href="#j" x="413.197" y="535.359"/><use xlink:href="#k" x="417.68" y="535.359"/><use xlink:href="#p" x="420.666" y="535.359"/><use xlink:href="#m" x="423.652" y="535.359"/><use xlink:href="#q" x="428.637" y="535.359"/><use xlink:href="#z" x="436.357" y="535.359"/><use xlink:href="#v" x="440.338" y="535.359"/><use xlink:href="#G" x="445.817" y="535.359"/><use xlink:href="#G" x="451.295" y="535.359"/><use xlink:href="#m" x="456.774" y="535.359"/><use xlink:href="#w" x="461.759" y="535.359"/><use xlink:href="#k" x="465.471" y="535.359"/><use xlink:href="#ap" x="125.798" y="576.896"/><use xlink:href="#U" x="134.122" y="576.896"/><use xlink:href="#U" x="140.787" y="576.896"/><use xlink:href="#Q" x="147.453" y="576.896"/><use xlink:href="#c" x="151.085" y="576.896"/><use xlink:href="#Q" x="154.718" y="576.896"/><use xlink:href="#aq" x="158.351" y="576.896"/><use xlink:href="#e" x="164.416" y="576.896"/><use xlink:href="#b" x="171.082" y="576.896"/><use xlink:href="#T" x="176.536" y="576.896"/><use xlink:href="#ag" x="184.511" y="576.896"/><use xlink:href="#aq" x="189.354" y="576.896"/><use xlink:href="#h" x="195.42" y="576.896"/><use xlink:href="#h" x="205.118" y="576.896"/><use xlink:href="#g" x="214.816" y="576.896"/><use xlink:href="#e" x="220.271" y="576.896"/><use xlink:href="#c" x="226.936" y="576.896"/><use xlink:href="#ar" x="234.911" y="576.896"/><use xlink:href="#as" x="240.365" y="576.896"/><use xlink:href="#at" x="245.82" y="576.896"/><use xlink:href="#au" x="252.9" y="576.896"/><use xlink:href="#af" x="260.176" y="576.896"/><use xlink:href="#g" x="266.842" y="576.896"/><use xlink:href="#av" x="276.638" y="576.896"/><use xlink:href="#g" x="283.151" y="576.896"/><use xlink:href="#ao" x="288.605" y="576.896"/><use xlink:href="#R" x="294.671" y="576.896"/><use xlink:href="#aw" x="303.845" y="576.896"/><use xlink:href="#aq" x="307.991" y="576.896"/><use xlink:href="#Z" x="314.056" y="576.896"/><use xlink:href="#c" x="322.642" y="576.896"/><use xlink:href="#af" x="326.493" y="576.896"/><use xlink:href="#Q" x="333.158" y="576.896"/><use xlink:href="#R" x="336.791" y="576.896"/><use xlink:href="#g" x="345.976" y="576.896"/><use xlink:href="#ax" x="351.431" y="576.896"/><use xlink:href="#b" x="356.885" y="576.896"/><use xlink:href="#h" x="362.34" y="576.896"/><use xlink:href="#ay" x="371.776" y="576.896"/><use xlink:href="#T" x="378.442" y="576.896"/><use xlink:href="#g" x="382.074" y="576.896"/><use xlink:href="#aj" x="391.871" y="576.896"/><use xlink:href="#g" x="400.631" y="576.896"/><use xlink:href="#Z" x="406.085" y="576.896"/><use xlink:href="#g" x="410.329" y="576.896"/><use xlink:href="#R" x="420.125" y="576.896"/><use xlink:href="#g" x="424.969" y="576.896"/><use xlink:href="#T" x="430.423" y="576.896"/><use xlink:href="#g" x="434.056" y="576.896"/><use xlink:href="#ag" x="439.511" y="576.896"/><use xlink:href="#c" x="444.354" y="576.896"/><use xlink:href="#g" x="447.987" y="576.896"/><use xlink:href="#U" x="453.442" y="576.896"/><use xlink:href="#Z" x="464.449" y="576.896"/><use xlink:href="#b" x="468.693" y="576.896"/><use xlink:href="#e" x="474.147" y="576.896"/><use xlink:href="#az" x="480.813" y="576.896"/><use xlink:href="#U" x="125.798" y="590.445"/><use xlink:href="#aq" x="132.463" y="590.445"/><use xlink:href="#h" x="138.529" y="590.445"/><use xlink:href="#T" x="148.227" y="590.445"/><use xlink:href="#ao" x="151.642" y="590.445"/><use xlink:href="#aA" x="157.053" y="590.445"/><use xlink:href="#aB" x="299.671" y="699.049"/><use xlink:href="#aC" x="305.126" y="699.049"/></svg>